NotoSerifArmenian-SemiBold.ufo
<glyph name="dieresiscomb" format="2">
  <unicode hex="0308"/>
  <anchor x="-1" y="536" name="_top"/>
  <outline>
    <contour>
      <point x="102" y="626" type="curve" smooth="yes"/>
      <point x="132" y="626"/>
      <point x="161" y="643"/>
      <point x="161" y="688" type="curve" smooth="yes"/>
      <point x="161" y="734"/>
      <point x="132" y="750"/>
      <point x="102" y="750" type="curve" smooth="yes"/>
      <point x="70" y="750"/>
      <point x="42" y="734"/>
      <point x="42" y="688" type="curve" smooth="yes"/>
      <point x="42" y="643"/>
      <point x="70" y="626"/>
    </contour>
    <contour>
      <point x="-104" y="626" type="curve" smooth="yes"/>
      <point x="-73" y="626"/>
      <point x="-44" y="643"/>
      <point x="-44" y="688" type="curve" smooth="yes"/>
      <point x="-44" y="734"/>
      <point x="-73" y="750"/>
      <point x="-104" y="750" type="curve" smooth="yes"/>
      <point x="-135" y="750"/>
      <point x="-163" y="734"/>
      <point x="-163" y="688" type="curve" smooth="yes"/>
      <point x="-163" y="643"/>
      <point x="-135" y="626"/>
    </contour>
  </outline>
</glyph>
<glyph name="uni0531" format="2">
  <advance width="909"/>
  <unicode hex="0531"/>
  <note>
uni0531
</note>
  <anchor x="381" y="714" name="top"/>
  <outline>
    <contour>
      <point x="458" y="714" type="line"/>
      <point x="458" y="663" type="line"/>
      <point x="497" y="663"/>
      <point x="503" y="653"/>
      <point x="503" y="600" type="curve" smooth="yes"/>
      <point x="503" y="198" type="line" smooth="yes"/>
      <point x="503" y="106"/>
      <point x="459" y="55"/>
      <point x="381" y="55" type="curve" smooth="yes"/>
      <point x="302" y="55"/>
      <point x="258" y="105"/>
      <point x="258" y="198" type="curve" smooth="yes"/>
      <point x="258" y="714" type="line"/>
      <point x="54" y="714" type="line"/>
      <point x="54" y="663" type="line"/>
      <point x="93" y="663"/>
      <point x="100" y="653"/>
      <point x="100" y="600" type="curve" smooth="yes"/>
      <point x="100" y="223" type="line" smooth="yes"/>
      <point x="100" y="74"/>
      <point x="203" y="-10"/>
      <point x="381" y="-10" type="curve" smooth="yes"/>
      <point x="558" y="-10"/>
      <point x="661" y="73"/>
      <point x="661" y="223" type="curve" smooth="yes"/>
      <point x="661" y="714" type="line"/>
    </contour>
    <contour>
      <point x="646" y="257" type="curve"/>
      <point x="644" y="188" type="line"/>
      <point x="650" y="190"/>
      <point x="668" y="192"/>
      <point x="675" y="192" type="curve" smooth="yes"/>
      <point x="724" y="192"/>
      <point x="735" y="177"/>
      <point x="735" y="87" type="curve" smooth="yes"/>
      <point x="735" y="0" type="line"/>
      <point x="885" y="0" type="line"/>
      <point x="885" y="84" type="line" smooth="yes"/>
      <point x="885" y="217"/>
      <point x="835" y="264"/>
      <point x="710" y="264" type="curve" smooth="yes"/>
      <point x="689" y="264"/>
      <point x="670" y="261"/>
    </contour>
  </outline>
</glyph>
<glyph name="uni0532" format="2">
  <advance width="723"/>
  <unicode hex="0532"/>
  <note>
uni0532
</note>
  <outline>
    <contour>
      <point x="303" y="0" type="line"/>
      <point x="303" y="51" type="line"/>
      <point x="264" y="51"/>
      <point x="258" y="61"/>
      <point x="258" y="114" type="curve" smooth="yes"/>
      <point x="258" y="516" type="line" smooth="yes"/>
      <point x="258" y="608"/>
      <point x="302" y="659"/>
      <point x="380" y="659" type="curve" smooth="yes"/>
      <point x="459" y="659"/>
      <point x="503" y="609"/>
      <point x="503" y="516" type="curve" smooth="yes"/>
      <point x="503" y="414" type="line"/>
      <point x="661" y="414" type="line"/>
      <point x="661" y="491" type="line" smooth="yes"/>
      <point x="661" y="640"/>
      <point x="558" y="724"/>
      <point x="380" y="724" type="curve" smooth="yes"/>
      <point x="203" y="724"/>
      <point x="100" y="641"/>
      <point x="100" y="491" type="curve" smooth="yes"/>
      <point x="100" y="0" type="line"/>
    </contour>
    <contour>
      <point x="248" y="287" type="line"/>
      <point x="651" y="287" type="line"/>
      <point x="651" y="347" type="line"/>
      <point x="248" y="347" type="line"/>
    </contour>
  </outline>
</glyph>
<glyph name="uni0533" format="2">
  <advance width="813"/>
  <unicode hex="0533"/>
  <note>
uni0533
</note>
  <outline>
    <contour>
      <point x="463" y="0" type="line"/>
      <point x="667" y="0" type="line"/>
      <point x="667" y="51" type="line"/>
      <point x="628" y="51"/>
      <point x="621" y="61"/>
      <point x="621" y="114" type="curve" smooth="yes"/>
      <point x="621" y="491" type="line" smooth="yes"/>
      <point x="621" y="640"/>
      <point x="518" y="724"/>
      <point x="340" y="724" type="curve" smooth="yes"/>
      <point x="163" y="724"/>
      <point x="60" y="641"/>
      <point x="60" y="502" type="curve" smooth="yes"/>
      <point x="60" y="363"/>
      <point x="163" y="288"/>
      <point x="340" y="288" type="curve" smooth="yes"/>
      <point x="463" y="288" type="line"/>
    </contour>
    <contour>
      <point x="340" y="348" type="line" smooth="yes"/>
      <point x="262" y="348"/>
      <point x="218" y="385"/>
      <point x="218" y="502" type="curve" smooth="yes"/>
      <point x="218" y="619"/>
      <point x="262" y="659"/>
      <point x="340" y="659" type="curve" smooth="yes"/>
      <point x="419" y="659"/>
      <point x="463" y="609"/>
      <point x="463" y="516" type="curve" smooth="yes"/>
      <point x="463" y="348" type="line"/>
    </contour>
    <contour>
      <point x="611" y="288" type="line"/>
      <point x="808" y="288" type="line"/>
      <point x="808" y="348" type="line"/>
      <point x="611" y="348" type="line"/>
    </contour>
  </outline>
</glyph>
<glyph name="uni0534" format="2">
  <advance width="813"/>
  <unicode hex="0534"/>
  <note>
uni0534
</note>
  <outline>
    <contour>
      <point x="60" y="344" type="line"/>
      <point x="218" y="344" type="line"/>
      <point x="218" y="516" type="line" smooth="yes"/>
      <point x="218" y="608"/>
      <point x="262" y="659"/>
      <point x="340" y="659" type="curve" smooth="yes"/>
      <point x="419" y="659"/>
      <point x="463" y="609"/>
      <point x="463" y="516" type="curve" smooth="yes"/>
      <point x="463" y="0" type="line"/>
      <point x="667" y="0" type="line"/>
      <point x="667" y="51" type="line"/>
      <point x="628" y="51"/>
      <point x="621" y="61"/>
      <point x="621" y="114" type="curve" smooth="yes"/>
      <point x="621" y="491" type="line" smooth="yes"/>
      <point x="621" y="640"/>
      <point x="518" y="724"/>
      <point x="340" y="724" type="curve" smooth="yes"/>
      <point x="163" y="724"/>
      <point x="60" y="641"/>
      <point x="60" y="491" type="curve" smooth="yes"/>
    </contour>
    <contour>
      <point x="611" y="288" type="line"/>
      <point x="808" y="288" type="line"/>
      <point x="808" y="348" type="line"/>
      <point x="611" y="348" type="line"/>
    </contour>
  </outline>
</glyph>
<glyph name="uni0535" format="2">
  <advance width="721"/>
  <unicode hex="0535"/>
  <note>
uni0535
</note>
  <outline>
    <contour>
      <point x="381" y="-10" type="curve" smooth="yes"/>
      <point x="558" y="-10"/>
      <point x="661" y="73"/>
      <point x="661" y="223" type="curve" smooth="yes"/>
      <point x="661" y="294" type="line"/>
      <point x="503" y="294" type="line"/>
      <point x="503" y="198" type="line" smooth="yes"/>
      <point x="503" y="106"/>
      <point x="459" y="55"/>
      <point x="381" y="55" type="curve" smooth="yes"/>
      <point x="302" y="55"/>
      <point x="258" y="105"/>
      <point x="258" y="198" type="curve" smooth="yes"/>
      <point x="258" y="714" type="line"/>
      <point x="54" y="714" type="line"/>
      <point x="54" y="663" type="line"/>
      <point x="93" y="663"/>
      <point x="100" y="653"/>
      <point x="100" y="600" type="curve" smooth="yes"/>
      <point x="100" y="223" type="line" smooth="yes"/>
      <point x="100" y="74"/>
      <point x="203" y="-10"/>
    </contour>
    <contour>
      <point x="248" y="433" type="line"/>
      <point x="656" y="433" type="line"/>
      <point x="656" y="493" type="line"/>
      <point x="248" y="493" type="line"/>
    </contour>
  </outline>
</glyph>
<glyph name="uni0536" format="2">
  <advance width="649"/>
  <unicode hex="0536"/>
  <note>
uni0536
</note>
  <outline>
    <contour>
      <point x="301" y="278" type="curve"/>
      <point x="467" y="278"/>
      <point x="590" y="365"/>
      <point x="590" y="486" type="curve" smooth="yes"/>
      <point x="590" y="641"/>
      <point x="475" y="723"/>
      <point x="316" y="723" type="curve" smooth="yes"/>
      <point x="155" y="723"/>
      <point x="42" y="636"/>
      <point x="42" y="495" type="curve" smooth="yes"/>
      <point x="42" y="360"/>
      <point x="157" y="278"/>
    </contour>
    <contour>
      <point x="56" y="0" type="line"/>
      <point x="208" y="0" type="line"/>
      <point x="208" y="201" type="line"/>
      <point x="56" y="201" type="line"/>
    </contour>
    <contour>
      <point x="459" y="0" type="line"/>
      <point x="617" y="0" type="line"/>
      <point x="617" y="14" type="line" smooth="yes"/>
      <point x="617" y="110"/>
      <point x="560" y="150"/>
      <point x="437" y="150" type="curve" smooth="yes"/>
      <point x="132" y="150" type="line"/>
      <point x="132" y="90" type="line"/>
      <point x="372" y="90" type="line" smooth="yes"/>
      <point x="438" y="90"/>
      <point x="459" y="73"/>
      <point x="459" y="19" type="curve" smooth="yes"/>
    </contour>
    <contour>
      <point x="202" y="98" type="line"/>
      <point x="423" y="112"/>
      <point x="590" y="237"/>
      <point x="590" y="486" type="curve"/>
      <point x="440" y="486" type="line"/>
      <point x="440" y="236"/>
      <point x="347" y="150"/>
      <point x="202" y="150" type="curve"/>
    </contour>
    <contour>
      <point x="316" y="343" type="curve"/>
      <point x="250" y="343"/>
      <point x="209" y="403"/>
      <point x="209" y="495" type="curve" smooth="yes"/>
      <point x="209" y="597"/>
      <point x="253" y="658"/>
      <point x="316" y="658" type="curve" smooth="yes"/>
      <point x="382" y="658"/>
      <point x="423" y="598"/>
      <point x="423" y="506" type="curve" smooth="yes"/>
      <point x="423" y="404"/>
      <point x="379" y="343"/>
    </contour>
  </outline>
</glyph>
<glyph name="uni0537" format="2">
  <advance width="613"/>
  <unicode hex="0537"/>
  <note>
uni0537
</note>
  <outline>
    <contour>
      <point x="258" y="45" type="line"/>
      <point x="258" y="714" type="line"/>
      <point x="54" y="714" type="line"/>
      <point x="54" y="663" type="line"/>
      <point x="93" y="663"/>
      <point x="100" y="653"/>
      <point x="100" y="600" type="curve" smooth="yes"/>
      <point x="100" y="0" type="line"/>
    </contour>
    <contour>
      <point x="194" y="433" type="line"/>
      <point x="549" y="433" type="line"/>
      <point x="549" y="493" type="line"/>
      <point x="194" y="493" type="line"/>
    </contour>
    <contour>
      <point x="379" y="104" type="curve" smooth="yes"/>
      <point x="307" y="104"/>
      <point x="225" y="86"/>
      <point x="100" y="42" type="curve"/>
      <point x="100" y="0" type="line"/>
      <point x="171" y="20"/>
      <point x="274" y="42"/>
      <point x="314" y="42" type="curve" smooth="yes"/>
      <point x="380" y="42"/>
      <point x="401" y="21"/>
      <point x="401" y="-33" type="curve" smooth="yes"/>
      <point x="401" y="-62" type="line"/>
      <point x="559" y="-62" type="line"/>
      <point x="559" y="-38" type="line" smooth="yes"/>
      <point x="559" y="58"/>
      <point x="502" y="104"/>
    </contour>
  </outline>
</glyph>
<glyph name="uni0538" format="2">
  <advance width="741"/>
  <unicode hex="0538"/>
  <note>
uni0538
</note>
  <outline>
    <contour>
      <point x="380" y="724" type="curve" smooth="yes"/>
      <point x="203" y="724"/>
      <point x="100" y="641"/>
      <point x="100" y="491" type="curve" smooth="yes"/>
      <point x="100" y="0" type="line"/>
      <point x="258" y="0" type="line"/>
      <point x="258" y="516" type="line" smooth="yes"/>
      <point x="258" y="608"/>
      <point x="302" y="659"/>
      <point x="380" y="659" type="curve" smooth="yes"/>
      <point x="459" y="659"/>
      <point x="503" y="609"/>
      <point x="503" y="516" type="curve" smooth="yes"/>
      <point x="503" y="349" type="line"/>
      <point x="661" y="349" type="line"/>
      <point x="661" y="491" type="line" smooth="yes"/>
      <point x="661" y="640"/>
      <point x="558" y="724"/>
    </contour>
    <contour>
      <point x="248" y="0" type="line"/>
      <point x="681" y="0" type="line"/>
      <point x="681" y="60" type="line"/>
      <point x="248" y="60" type="line"/>
    </contour>
  </outline>
</glyph>
<glyph name="uni0539" format="2">
  <advance width="851"/>
  <unicode hex="0539"/>
  <note>
uni0539
</note>
  <outline>
    <contour>
      <point x="303" y="0" type="line"/>
      <point x="303" y="51" type="line"/>
      <point x="264" y="51"/>
      <point x="258" y="61"/>
      <point x="258" y="114" type="curve" smooth="yes"/>
      <point x="258" y="490" type="line" smooth="yes"/>
      <point x="258" y="608"/>
      <point x="322" y="659"/>
      <point x="434" y="659" type="curve" smooth="yes"/>
      <point x="548" y="659"/>
      <point x="612" y="611"/>
      <point x="612" y="457" type="curve"/>
      <point x="770" y="457" type="line"/>
      <point x="770" y="640"/>
      <point x="647" y="724"/>
      <point x="434" y="724" type="curve" smooth="yes"/>
      <point x="223" y="724"/>
      <point x="100" y="641"/>
      <point x="100" y="491" type="curve" smooth="yes"/>
      <point x="100" y="0" type="line"/>
    </contour>
    <contour>
      <point x="571" y="421" type="curve" smooth="yes"/>
      <point x="612" y="421" type="line"/>
      <point x="612" y="221"/>
      <point x="598" y="187"/>
      <point x="544" y="187" type="curve" smooth="yes"/>
      <point x="496" y="187"/>
      <point x="485" y="223"/>
      <point x="485" y="300" type="curve" smooth="yes"/>
      <point x="485" y="377"/>
      <point x="514" y="421"/>
    </contour>
    <contour>
      <point x="846" y="481" type="line"/>
      <point x="544" y="481" type="line" smooth="yes"/>
      <point x="406" y="481"/>
      <point x="340" y="413"/>
      <point x="340" y="311" type="curve" smooth="yes"/>
      <point x="340" y="194"/>
      <point x="400" y="127"/>
      <point x="544" y="127" type="curve" smooth="yes"/>
      <point x="692" y="127"/>
      <point x="770" y="221"/>
      <point x="770" y="421" type="curve"/>
      <point x="846" y="421" type="line"/>
    </contour>
  </outline>
</glyph>
<glyph name="uni053A" format="2">
  <advance width="730"/>
  <unicode hex="053A"/>
  <note>
uni053A
</note>
  <outline>
    <contour>
      <point x="317" y="-10" type="curve" smooth="yes"/>
      <point x="495" y="-10"/>
      <point x="588" y="84"/>
      <point x="588" y="233" type="curve" smooth="yes"/>
      <point x="588" y="714" type="line"/>
      <point x="384" y="714" type="line"/>
      <point x="384" y="663" type="line"/>
      <point x="423" y="663"/>
      <point x="430" y="653"/>
      <point x="430" y="600" type="curve" smooth="yes"/>
      <point x="430" y="466" type="line"/>
      <point x="337" y="466" type="line" smooth="yes"/>
      <point x="160" y="466"/>
      <point x="47" y="371"/>
      <point x="47" y="232" type="curve" smooth="yes"/>
      <point x="47" y="73"/>
      <point x="140" y="-10"/>
    </contour>
    <contour>
      <point x="322" y="55" type="curve" smooth="yes"/>
      <point x="249" y="55"/>
      <point x="215" y="95"/>
      <point x="215" y="232" type="curve" smooth="yes"/>
      <point x="215" y="349"/>
      <point x="279" y="406"/>
      <point x="357" y="406" type="curve" smooth="yes"/>
      <point x="430" y="406" type="line"/>
      <point x="430" y="208" type="line" smooth="yes"/>
      <point x="430" y="115"/>
      <point x="396" y="55"/>
    </contour>
    <contour>
      <point x="578" y="466" type="line"/>
      <point x="578" y="406" type="line"/>
      <point x="725" y="406" type="line"/>
      <point x="725" y="466" type="line"/>
    </contour>
  </outline>
</glyph>
<glyph name="uni053B" format="2">
  <advance width="720"/>
  <unicode hex="053B"/>
  <note>
uni053B
</note>
  <outline>
    <contour>
      <point x="268" y="312" type="line" smooth="yes"/>
      <point x="268" y="414"/>
      <point x="311" y="489"/>
      <point x="401" y="489" type="curve" smooth="yes"/>
      <point x="460" y="489"/>
      <point x="494" y="461"/>
      <point x="494" y="340" type="curve" smooth="yes"/>
      <point x="494" y="274" type="line"/>
      <point x="652" y="274" type="line"/>
      <point x="652" y="325" type="line" smooth="yes"/>
      <point x="652" y="489"/>
      <point x="591" y="560"/>
      <point x="442" y="560" type="curve" smooth="yes"/>
      <point x="348" y="560"/>
      <point x="305" y="529"/>
      <point x="271" y="485" type="curve"/>
      <point x="263" y="484" type="line"/>
      <point x="267" y="513"/>
      <point x="268" y="543"/>
      <point x="268" y="575" type="curve" smooth="yes"/>
      <point x="268" y="714" type="line"/>
      <point x="64" y="714" type="line"/>
      <point x="64" y="663" type="line"/>
      <point x="103" y="663"/>
      <point x="110" y="653"/>
      <point x="110" y="600" type="curve" smooth="yes"/>
      <point x="110" y="0" type="line"/>
      <point x="314" y="0" type="line"/>
      <point x="314" y="51" type="line"/>
      <point x="275" y="51"/>
      <point x="268" y="61"/>
      <point x="268" y="114" type="curve" smooth="yes"/>
    </contour>
  </outline>
</glyph>
<glyph name="uni053C" format="2">
  <advance width="580"/>
  <unicode hex="053C"/>
  <note>
uni053C
</note>
  <outline>
    <contour>
      <point x="570" y="109" type="line"/>
      <point x="515" y="109" type="line"/>
      <point x="515" y="70"/>
      <point x="513" y="61"/>
      <point x="471" y="61" type="curve" smooth="yes"/>
      <point x="268" y="61" type="line"/>
      <point x="268" y="714" type="line"/>
      <point x="64" y="714" type="line"/>
      <point x="64" y="663" type="line"/>
      <point x="103" y="663"/>
      <point x="110" y="653"/>
      <point x="110" y="600" type="curve" smooth="yes"/>
      <point x="110" y="0" type="line"/>
      <point x="570" y="0" type="line"/>
    </contour>
  </outline>
</glyph>
<glyph name="uni053D" format="2">
  <advance width="944"/>
  <unicode hex="053D"/>
  <note>
uni053D
</note>
  <outline>
    <contour>
      <point x="268" y="114" type="curve" smooth="yes"/>
      <point x="268" y="714" type="line"/>
      <point x="64" y="714" type="line"/>
      <point x="64" y="663" type="line"/>
      <point x="103" y="663"/>
      <point x="110" y="653"/>
      <point x="110" y="600" type="curve" smooth="yes"/>
      <point x="110" y="0" type="line"/>
      <point x="314" y="0" type="line"/>
      <point x="314" y="51" type="line"/>
      <point x="275" y="51"/>
      <point x="268" y="61"/>
    </contour>
    <contour>
      <point x="674" y="507" type="line"/>
      <point x="708" y="507"/>
      <point x="724" y="498"/>
      <point x="724" y="463" type="curve" smooth="yes"/>
      <point x="724" y="339" type="line" smooth="yes"/>
      <point x="724" y="258"/>
      <point x="703" y="220"/>
      <point x="644" y="220" type="curve" smooth="yes"/>
      <point x="585" y="220"/>
      <point x="564" y="258"/>
      <point x="564" y="339" type="curve" smooth="yes"/>
      <point x="564" y="560" type="line"/>
      <point x="245" y="560" type="line"/>
      <point x="245" y="499" type="line"/>
      <point x="406" y="499" type="line"/>
      <point x="406" y="338" type="line" smooth="yes"/>
      <point x="406" y="218"/>
      <point x="507" y="157"/>
      <point x="644" y="157" type="curve" smooth="yes"/>
      <point x="781" y="157"/>
      <point x="882" y="218"/>
      <point x="882" y="338" type="curve" smooth="yes"/>
      <point x="882" y="560" type="line"/>
      <point x="674" y="560" type="line"/>
    </contour>
  </outline>
</glyph>
<glyph name="uni053E" format="2">
  <advance width="746"/>
  <unicode hex="053E"/>
  <note>
uni053E
</note>
  <outline>
    <contour>
      <point x="295" y="610" type="curve" smooth="yes"/>
      <point x="208" y="625"/>
      <point x="186" y="665"/>
      <point x="186" y="714" type="curve"/>
      <point x="32" y="714" type="line"/>
      <point x="32" y="626"/>
      <point x="95" y="576"/>
      <point x="235" y="557" type="curve" smooth="yes"/>
      <point x="414" y="533"/>
      <point x="522" y="428"/>
      <point x="522" y="276" type="curve" smooth="yes"/>
      <point x="522" y="129"/>
      <point x="464" y="55"/>
      <point x="371" y="55" type="curve" smooth="yes"/>
      <point x="265" y="55"/>
      <point x="226" y="139"/>
      <point x="226" y="259" type="curve" smooth="yes"/>
      <point x="226" y="453"/>
      <point x="378" y="652"/>
      <point x="512" y="652" type="curve" smooth="yes"/>
      <point x="572" y="652"/>
      <point x="605" y="617"/>
      <point x="605" y="542" type="curve"/>
      <point x="683" y="542"/>
      <point x="740" y="576"/>
      <point x="740" y="625" type="curve" smooth="yes"/>
      <point x="740" y="685"/>
      <point x="681" y="724"/>
      <point x="575" y="724" type="curve" smooth="yes"/>
      <point x="309" y="724"/>
      <point x="58" y="458"/>
      <point x="58" y="264" type="curve" smooth="yes"/>
      <point x="58" y="98"/>
      <point x="156" y="-10"/>
      <point x="371" y="-10" type="curve" smooth="yes"/>
      <point x="558" y="-10"/>
      <point x="690" y="112"/>
      <point x="690" y="277" type="curve" smooth="yes"/>
      <point x="690" y="454"/>
      <point x="518" y="572"/>
    </contour>
  </outline>
</glyph>
<glyph name="uni053F" format="2">
  <advance width="742"/>
  <unicode hex="053F"/>
  <note>
uni053F
</note>
  <outline>
    <contour>
      <point x="484" y="0" type="line"/>
      <point x="688" y="0" type="line"/>
      <point x="688" y="51" type="line"/>
      <point x="649" y="51"/>
      <point x="642" y="60"/>
      <point x="642" y="94" type="curve" smooth="yes"/>
      <point x="642" y="479" type="line"/>
      <point x="438" y="479" type="line"/>
      <point x="438" y="428" type="line"/>
      <point x="477" y="428"/>
      <point x="484" y="419"/>
      <point x="484" y="385" type="curve" smooth="yes"/>
      <point x="484" y="362" type="line" smooth="yes"/>
      <point x="484" y="300"/>
      <point x="441" y="225"/>
      <point x="351" y="225" type="curve" smooth="yes"/>
      <point x="292" y="225"/>
      <point x="258" y="253"/>
      <point x="258" y="374" type="curve" smooth="yes"/>
      <point x="258" y="714" type="line"/>
      <point x="54" y="714" type="line"/>
      <point x="54" y="663" type="line"/>
      <point x="93" y="663"/>
      <point x="100" y="653"/>
      <point x="100" y="620" type="curve" smooth="yes"/>
      <point x="100" y="370" type="line" smooth="yes"/>
      <point x="100" y="219"/>
      <point x="166" y="154"/>
      <point x="310" y="154" type="curve" smooth="yes"/>
      <point x="404" y="154"/>
      <point x="447" y="185"/>
      <point x="481" y="229" type="curve"/>
      <point x="489" y="230" type="line"/>
      <point x="485" y="201"/>
      <point x="484" y="171"/>
      <point x="484" y="139" type="curve" smooth="yes"/>
    </contour>
  </outline>
</glyph>
<glyph name="uni0540" format="2">
  <advance width="651"/>
  <unicode hex="0540"/>
  <note>
uni0540
</note>
  <outline>
    <contour>
      <point x="445" y="-62" type="line"/>
      <point x="603" y="-62" type="line"/>
      <point x="603" y="-48" type="line" smooth="yes"/>
      <point x="603" y="58"/>
      <point x="544" y="91"/>
      <point x="390" y="119" type="curve" smooth="yes"/>
      <point x="65" y="179" type="line"/>
      <point x="48" y="115" type="line"/>
      <point x="376" y="55" type="line" smooth="yes"/>
      <point x="426" y="46"/>
      <point x="445" y="21"/>
      <point x="445" y="-43" type="curve" smooth="yes"/>
    </contour>
    <contour>
      <point x="206" y="115" type="line"/>
      <point x="229" y="507"/>
      <point x="293" y="659"/>
      <point x="375" y="659" type="curve" smooth="yes"/>
      <point x="445" y="659"/>
      <point x="474" y="616"/>
      <point x="474" y="516" type="curve"/>
      <point x="552" y="516"/>
      <point x="609" y="550"/>
      <point x="609" y="603" type="curve" smooth="yes"/>
      <point x="609" y="684"/>
      <point x="530" y="724"/>
      <point x="395" y="724" type="curve" smooth="yes"/>
      <point x="191" y="724"/>
      <point x="78" y="569"/>
      <point x="48" y="115" type="curve"/>
    </contour>
  </outline>
</glyph>
<glyph name="uni0541" format="2">
  <advance width="657"/>
  <unicode hex="0541"/>
  <note>
uni0541
</note>
  <outline>
    <contour>
      <point x="321" y="370" type="curve" smooth="yes"/>
      <point x="255" y="370"/>
      <point x="209" y="419"/>
      <point x="209" y="512" type="curve" smooth="yes"/>
      <point x="209" y="603"/>
      <point x="258" y="658"/>
      <point x="321" y="658" type="curve" smooth="yes"/>
      <point x="387" y="658"/>
      <point x="433" y="608"/>
      <point x="433" y="483" type="curve" smooth="yes"/>
      <point x="433" y="460"/>
      <point x="431" y="427"/>
      <point x="428" y="404" type="curve"/>
      <point x="407" y="386"/>
      <point x="360" y="370"/>
    </contour>
    <contour>
      <point x="421" y="328" type="curve"/>
      <point x="408" y="200"/>
      <point x="347" y="55"/>
      <point x="258" y="55" type="curve" smooth="yes"/>
      <point x="223" y="55"/>
      <point x="197" y="77"/>
      <point x="197" y="115" type="curve" smooth="yes"/>
      <point x="197" y="152"/>
      <point x="223" y="177"/>
      <point x="258" y="177" type="curve" smooth="yes"/>
      <point x="350" y="177"/>
      <point x="374" y="-10"/>
      <point x="555" y="-10" type="curve" smooth="yes"/>
      <point x="598" y="-10"/>
      <point x="624" y="19"/>
      <point x="625" y="64" type="curve"/>
      <point x="408" y="64"/>
      <point x="419" y="239"/>
      <point x="237" y="239" type="curve" smooth="yes"/>
      <point x="129" y="239"/>
      <point x="57" y="187"/>
      <point x="57" y="107" type="curve" smooth="yes"/>
      <point x="57" y="33"/>
      <point x="114" y="-10"/>
      <point x="237" y="-10" type="curve" smooth="yes"/>
      <point x="421" y="-10"/>
      <point x="600" y="179"/>
      <point x="600" y="457" type="curve" smooth="yes"/>
      <point x="600" y="653"/>
      <point x="470" y="723"/>
      <point x="321" y="723" type="curve" smooth="yes"/>
      <point x="160" y="723"/>
      <point x="42" y="641"/>
      <point x="42" y="509" type="curve" smooth="yes"/>
      <point x="42" y="382"/>
      <point x="162" y="308"/>
      <point x="282" y="308" type="curve" smooth="yes"/>
      <point x="346" y="308"/>
      <point x="389" y="314"/>
    </contour>
  </outline>
</glyph>
<glyph name="uni0542" format="2">
  <advance width="805"/>
  <unicode hex="0542"/>
  <note>
uni0542
</note>
  <outline>
    <contour>
      <point x="601" y="0" type="line"/>
      <point x="800" y="0" type="line"/>
      <point x="800" y="60" type="line"/>
      <point x="601" y="60" type="line"/>
    </contour>
    <contour>
      <point x="340" y="724" type="curve" smooth="yes"/>
      <point x="163" y="724"/>
      <point x="60" y="641"/>
      <point x="60" y="491" type="curve" smooth="yes"/>
      <point x="60" y="344" type="line"/>
      <point x="218" y="344" type="line"/>
      <point x="218" y="516" type="line" smooth="yes"/>
      <point x="218" y="608"/>
      <point x="262" y="659"/>
      <point x="340" y="659" type="curve" smooth="yes"/>
      <point x="419" y="659"/>
      <point x="463" y="609"/>
      <point x="463" y="516" type="curve" smooth="yes"/>
      <point x="463" y="0" type="line"/>
      <point x="621" y="0" type="line"/>
      <point x="621" y="491" type="line" smooth="yes"/>
      <point x="621" y="640"/>
      <point x="518" y="724"/>
    </contour>
  </outline>
</glyph>
<glyph name="uni0543" format="2">
  <advance width="718"/>
  <unicode hex="0543"/>
  <note>
uni0543
</note>
  <outline>
    <contour>
      <point x="658" y="0" type="line"/>
      <point x="658" y="459"/>
      <point x="511" y="628"/>
      <point x="62" y="628" type="curve"/>
      <point x="62" y="563" type="line"/>
      <point x="423" y="563"/>
      <point x="500" y="413"/>
      <point x="500" y="65" type="curve"/>
      <point x="349" y="65" type="line" smooth="yes"/>
      <point x="257" y="65"/>
      <point x="204" y="109"/>
      <point x="204" y="219" type="curve" smooth="yes"/>
      <point x="204" y="450"/>
      <point x="358" y="650"/>
      <point x="488" y="650" type="curve" smooth="yes"/>
      <point x="528" y="650"/>
      <point x="551" y="617"/>
      <point x="551" y="542" type="curve"/>
      <point x="629" y="542"/>
      <point x="686" y="576"/>
      <point x="686" y="625" type="curve" smooth="yes"/>
      <point x="686" y="685"/>
      <point x="627" y="724"/>
      <point x="531" y="724" type="curve" smooth="yes"/>
      <point x="287" y="724"/>
      <point x="36" y="398"/>
      <point x="36" y="224" type="curve" smooth="yes"/>
      <point x="36" y="68"/>
      <point x="135" y="0"/>
      <point x="350" y="0" type="curve" smooth="yes"/>
    </contour>
  </outline>
</glyph>
<glyph name="uni0544" format="2">
  <advance width="826"/>
  <unicode hex="0544"/>
  <note>
uni0544
</note>
  <outline>
    <contour>
      <point x="458" y="714" type="line"/>
      <point x="458" y="663" type="line"/>
      <point x="497" y="663"/>
      <point x="503" y="653"/>
      <point x="503" y="600" type="curve" smooth="yes"/>
      <point x="503" y="198" type="line" smooth="yes"/>
      <point x="503" y="106"/>
      <point x="459" y="55"/>
      <point x="381" y="55" type="curve" smooth="yes"/>
      <point x="302" y="55"/>
      <point x="258" y="105"/>
      <point x="258" y="198" type="curve" smooth="yes"/>
      <point x="258" y="714" type="line"/>
      <point x="54" y="714" type="line"/>
      <point x="54" y="663" type="line"/>
      <point x="93" y="663"/>
      <point x="100" y="653"/>
      <point x="100" y="600" type="curve" smooth="yes"/>
      <point x="100" y="223" type="line" smooth="yes"/>
      <point x="100" y="74"/>
      <point x="203" y="-10"/>
      <point x="381" y="-10" type="curve" smooth="yes"/>
      <point x="558" y="-10"/>
      <point x="661" y="73"/>
      <point x="661" y="223" type="curve" smooth="yes"/>
      <point x="661" y="714" type="line"/>
    </contour>
    <contour>
      <point x="669" y="649" type="line" smooth="yes"/>
      <point x="715" y="649"/>
      <point x="736" y="608"/>
      <point x="736" y="513" type="curve"/>
      <point x="808" y="513"/>
      <point x="846" y="552"/>
      <point x="846" y="607" type="curve" smooth="yes"/>
      <point x="846" y="683"/>
      <point x="791" y="714"/>
      <point x="674" y="714" type="curve" smooth="yes"/>
      <point x="612" y="714" type="line"/>
      <point x="612" y="649" type="line"/>
    </contour>
  </outline>
</glyph>
<glyph name="uni0545" format="2">
  <advance width="682"/>
  <unicode hex="0545"/>
  <note>
uni0545
</note>
  <outline>
    <contour>
      <point x="337" y="-11" type="curve" smooth="yes"/>
      <point x="488" y="-11"/>
      <point x="640" y="56"/>
      <point x="640" y="210" type="curve" smooth="yes"/>
      <point x="640" y="334"/>
      <point x="525" y="378"/>
      <point x="443" y="386" type="curve"/>
      <point x="540" y="407"/>
      <point x="614" y="453"/>
      <point x="614" y="557" type="curve" smooth="yes"/>
      <point x="614" y="673"/>
      <point x="506" y="724"/>
      <point x="346" y="724" type="curve" smooth="yes"/>
      <point x="191" y="724"/>
      <point x="95" y="662"/>
      <point x="95" y="591" type="curve" smooth="yes"/>
      <point x="95" y="523"/>
      <point x="152" y="508"/>
      <point x="225" y="508" type="curve"/>
      <point x="225" y="595"/>
      <point x="254" y="663"/>
      <point x="339" y="663" type="curve" smooth="yes"/>
      <point x="418" y="663"/>
      <point x="452" y="620"/>
      <point x="452" y="546" type="curve" smooth="yes"/>
      <point x="452" y="448"/>
      <point x="400" y="412"/>
      <point x="300" y="412" type="curve" smooth="yes"/>
      <point x="50" y="412" type="line"/>
      <point x="50" y="350" type="line"/>
      <point x="302" y="350" type="line" smooth="yes"/>
      <point x="425" y="350"/>
      <point x="476" y="293"/>
      <point x="476" y="204" type="curve" smooth="yes"/>
      <point x="476" y="104"/>
      <point x="418" y="53"/>
      <point x="323" y="53" type="curve" smooth="yes"/>
      <point x="221" y="53"/>
      <point x="192" y="121"/>
      <point x="190" y="225" type="curve"/>
      <point x="120" y="225"/>
      <point x="60" y="191"/>
      <point x="60" y="138" type="curve" smooth="yes"/>
      <point x="60" y="61"/>
      <point x="132" y="-11"/>
    </contour>
  </outline>
</glyph>
<glyph name="uni0546" format="2">
  <advance width="670"/>
  <unicode hex="0546"/>
  <note>
uni0546
</note>
  <outline>
    <contour>
      <point x="334" y="-10" type="curve" smooth="yes"/>
      <point x="512" y="-10"/>
      <point x="610" y="74"/>
      <point x="610" y="223" type="curve" smooth="yes"/>
      <point x="610" y="415" type="line"/>
      <point x="452" y="415" type="line"/>
      <point x="452" y="220" type="line" smooth="yes"/>
      <point x="452" y="105"/>
      <point x="413" y="55"/>
      <point x="334" y="55" type="curve" smooth="yes"/>
      <point x="256" y="55"/>
      <point x="218" y="100"/>
      <point x="218" y="227" type="curve" smooth="yes"/>
      <point x="218" y="356"/>
      <point x="266" y="515"/>
      <point x="336" y="635" type="curve"/>
      <point x="253" y="610" type="line"/>
      <point x="139" y="488"/>
      <point x="50" y="359"/>
      <point x="50" y="228" type="curve" smooth="yes"/>
      <point x="50" y="68"/>
      <point x="157" y="-10"/>
    </contour>
    <contour>
      <point x="336" y="635" type="line"/>
      <point x="201" y="635"/>
      <point x="176" y="685"/>
      <point x="176" y="764" type="curve"/>
      <point x="90" y="764"/>
      <point x="36" y="725"/>
      <point x="36" y="672" type="curve" smooth="yes"/>
      <point x="36" y="603"/>
      <point x="98" y="570"/>
      <point x="272" y="570" type="curve"/>
    </contour>
  </outline>
</glyph>
<glyph name="uni0547" format="2">
  <advance width="688"/>
  <unicode hex="0547"/>
  <note>
uni0547
</note>
  <outline>
    <contour>
      <point x="34" y="634" type="line"/>
      <point x="60" y="641"/>
      <point x="99" y="651"/>
      <point x="138" y="651" type="curve" smooth="yes"/>
      <point x="343" y="651"/>
      <point x="346" y="511"/>
      <point x="506" y="511" type="curve" smooth="yes"/>
      <point x="596" y="511"/>
      <point x="652" y="595"/>
      <point x="652" y="714" type="curve"/>
      <point x="582" y="714" type="line"/>
      <point x="582" y="671"/>
      <point x="547" y="643"/>
      <point x="494" y="643" type="curve" smooth="yes"/>
      <point x="382" y="643"/>
      <point x="317" y="719"/>
      <point x="157" y="719" type="curve" smooth="yes"/>
      <point x="123" y="719"/>
      <point x="65" y="709"/>
      <point x="34" y="699" type="curve"/>
    </contour>
    <contour>
      <point x="398" y="603" type="curve"/>
      <point x="315" y="620" type="line"/>
      <point x="167" y="508"/>
      <point x="48" y="394"/>
      <point x="48" y="228" type="curve" smooth="yes"/>
      <point x="48" y="78"/>
      <point x="161" y="-10"/>
      <point x="332" y="-10" type="curve" smooth="yes"/>
      <point x="506" y="-10"/>
      <point x="604" y="74"/>
      <point x="604" y="201" type="curve" smooth="yes"/>
      <point x="604" y="295" type="line"/>
      <point x="446" y="295" type="line"/>
      <point x="446" y="198" type="line" smooth="yes"/>
      <point x="446" y="105"/>
      <point x="405" y="55"/>
      <point x="331" y="55" type="curve" smooth="yes"/>
      <point x="257" y="55"/>
      <point x="216" y="100"/>
      <point x="216" y="227" type="curve" smooth="yes"/>
      <point x="216" y="386"/>
      <point x="288" y="503"/>
    </contour>
  </outline>
</glyph>
<glyph name="uni0549" format="2">
  <advance width="666"/>
  <unicode hex="0549"/>
  <note>
uni0549
</note>
  <outline>
    <contour>
      <point x="268" y="151" type="curve"/>
      <point x="318" y="109" type="line"/>
      <point x="481" y="180"/>
      <point x="618" y="308"/>
      <point x="618" y="486" type="curve" smooth="yes"/>
      <point x="618" y="636"/>
      <point x="505" y="724"/>
      <point x="328" y="724" type="curve" smooth="yes"/>
      <point x="150" y="724"/>
      <point x="47" y="640"/>
      <point x="47" y="513" type="curve" smooth="yes"/>
      <point x="47" y="479" type="line"/>
      <point x="205" y="479" type="line"/>
      <point x="205" y="516" type="line" smooth="yes"/>
      <point x="205" y="609"/>
      <point x="249" y="659"/>
      <point x="328" y="659" type="curve" smooth="yes"/>
      <point x="406" y="659"/>
      <point x="450" y="614"/>
      <point x="450" y="487" type="curve" smooth="yes"/>
      <point x="450" y="328"/>
      <point x="378" y="201"/>
    </contour>
    <contour>
      <point x="598" y="-10" type="curve"/>
      <point x="598" y="60" type="line"/>
      <point x="435" y="62"/>
      <point x="274" y="177"/>
      <point x="201" y="333" type="curve"/>
      <point x="32" y="255" type="line"/>
      <point x="164" y="96"/>
      <point x="378" y="-2"/>
    </contour>
  </outline>
</glyph>
<glyph name="uni054A" format="2">
  <advance width="902"/>
  <unicode hex="054A"/>
  <note>
uni054A
</note>
  <outline>
    <contour>
      <point x="802" y="114" type="curve" smooth="yes"/>
      <point x="802" y="491" type="line" smooth="yes"/>
      <point x="802" y="640"/>
      <point x="666" y="724"/>
      <point x="430" y="724" type="curve" smooth="yes"/>
      <point x="196" y="724"/>
      <point x="60" y="641"/>
      <point x="60" y="491" type="curve" smooth="yes"/>
      <point x="60" y="324" type="line"/>
      <point x="218" y="324" type="line"/>
      <point x="218" y="516" type="line" smooth="yes"/>
      <point x="218" y="618"/>
      <point x="294" y="659"/>
      <point x="430" y="659" type="curve" smooth="yes"/>
      <point x="567" y="659"/>
      <point x="644" y="619"/>
      <point x="644" y="516" type="curve" smooth="yes"/>
      <point x="644" y="0" type="line"/>
      <point x="848" y="0" type="line"/>
      <point x="848" y="51" type="line"/>
      <point x="809" y="51"/>
      <point x="802" y="61"/>
    </contour>
    <contour>
      <point x="352" y="670" type="line"/>
      <point x="352" y="162" type="line"/>
      <point x="510" y="162" type="line"/>
      <point x="510" y="670" type="line"/>
    </contour>
  </outline>
</glyph>
<glyph name="uni054B" format="2">
  <advance width="665"/>
  <unicode hex="054B"/>
  <note>
uni054B
</note>
  <outline>
    <contour>
      <point x="56" y="0" type="line"/>
      <point x="208" y="0" type="line"/>
      <point x="208" y="201" type="line"/>
      <point x="56" y="201" type="line"/>
    </contour>
    <contour>
      <point x="471" y="0" type="line"/>
      <point x="629" y="0" type="line"/>
      <point x="629" y="14" type="line" smooth="yes"/>
      <point x="629" y="110"/>
      <point x="572" y="150"/>
      <point x="449" y="150" type="curve" smooth="yes"/>
      <point x="132" y="150" type="line"/>
      <point x="132" y="90" type="line"/>
      <point x="384" y="90" type="line" smooth="yes"/>
      <point x="450" y="90"/>
      <point x="471" y="73"/>
      <point x="471" y="19" type="curve" smooth="yes"/>
    </contour>
    <contour>
      <point x="295" y="168" type="curve"/>
      <point x="355" y="209" type="line"/>
      <point x="355" y="285"/>
      <point x="325" y="330"/>
      <point x="281" y="380" type="curve" smooth="yes"/>
      <point x="237" y="431"/>
      <point x="210" y="463"/>
      <point x="210" y="513" type="curve" smooth="yes"/>
      <point x="210" y="601"/>
      <point x="249" y="659"/>
      <point x="323" y="659" type="curve" smooth="yes"/>
      <point x="405" y="659"/>
      <point x="449" y="614"/>
      <point x="449" y="487" type="curve" smooth="yes"/>
      <point x="449" y="362"/>
      <point x="402" y="259"/>
      <point x="335" y="200" type="curve" smooth="yes"/>
      <point x="299" y="168"/>
      <point x="258" y="150"/>
      <point x="208" y="150" type="curve"/>
      <point x="363" y="150" type="line"/>
      <point x="552" y="245"/>
      <point x="617" y="348"/>
      <point x="617" y="486" type="curve" smooth="yes"/>
      <point x="617" y="636"/>
      <point x="504" y="724"/>
      <point x="323" y="724" type="curve" smooth="yes"/>
      <point x="145" y="724"/>
      <point x="42" y="620"/>
      <point x="42" y="493" type="curve" smooth="yes"/>
      <point x="42" y="398"/>
      <point x="80" y="348"/>
      <point x="201" y="298" type="curve" smooth="yes"/>
      <point x="267" y="271"/>
      <point x="295" y="230"/>
    </contour>
  </outline>
</glyph>
<glyph name="uni054C" format="2">
  <advance width="909"/>
  <unicode hex="054C"/>
  <note>
uni054C
</note>
  <outline>
    <contour>
      <point x="303" y="0" type="line"/>
      <point x="303" y="51" type="line"/>
      <point x="264" y="51"/>
      <point x="258" y="61"/>
      <point x="258" y="114" type="curve" smooth="yes"/>
      <point x="258" y="516" type="line" smooth="yes"/>
      <point x="258" y="608"/>
      <point x="302" y="659"/>
      <point x="380" y="659" type="curve" smooth="yes"/>
      <point x="459" y="659"/>
      <point x="503" y="609"/>
      <point x="503" y="516" type="curve" smooth="yes"/>
      <point x="503" y="0" type="line"/>
      <point x="707" y="0" type="line"/>
      <point x="707" y="51" type="line"/>
      <point x="668" y="51"/>
      <point x="661" y="61"/>
      <point x="661" y="114" type="curve" smooth="yes"/>
      <point x="661" y="491" type="line" smooth="yes"/>
      <point x="661" y="640"/>
      <point x="558" y="724"/>
      <point x="380" y="724" type="curve" smooth="yes"/>
      <point x="203" y="724"/>
      <point x="100" y="641"/>
      <point x="100" y="491" type="curve" smooth="yes"/>
      <point x="100" y="0" type="line"/>
    </contour>
    <contour>
      <point x="646" y="417" type="curve"/>
      <point x="644" y="348" type="line"/>
      <point x="650" y="350"/>
      <point x="668" y="352"/>
      <point x="675" y="352" type="curve" smooth="yes"/>
      <point x="724" y="352"/>
      <point x="735" y="337"/>
      <point x="735" y="247" type="curve" smooth="yes"/>
      <point x="735" y="160" type="line"/>
      <point x="885" y="160" type="line"/>
      <point x="885" y="244" type="line" smooth="yes"/>
      <point x="885" y="377"/>
      <point x="835" y="424"/>
      <point x="710" y="424" type="curve" smooth="yes"/>
      <point x="689" y="424"/>
      <point x="670" y="420"/>
    </contour>
  </outline>
</glyph>
<glyph name="uni054D" format="2">
  <advance width="761"/>
  <unicode hex="054D"/>
  <note>
uni054D
</note>
  <outline>
    <contour>
      <point x="458" y="714" type="line"/>
      <point x="458" y="663" type="line"/>
      <point x="497" y="663"/>
      <point x="503" y="653"/>
      <point x="503" y="600" type="curve" smooth="yes"/>
      <point x="503" y="198" type="line" smooth="yes"/>
      <point x="503" y="106"/>
      <point x="459" y="55"/>
      <point x="381" y="55" type="curve" smooth="yes"/>
      <point x="302" y="55"/>
      <point x="258" y="105"/>
      <point x="258" y="198" type="curve" smooth="yes"/>
      <point x="258" y="714" type="line"/>
      <point x="54" y="714" type="line"/>
      <point x="54" y="663" type="line"/>
      <point x="93" y="663"/>
      <point x="100" y="653"/>
      <point x="100" y="600" type="curve" smooth="yes"/>
      <point x="100" y="223" type="line" smooth="yes"/>
      <point x="100" y="74"/>
      <point x="203" y="-10"/>
      <point x="381" y="-10" type="curve" smooth="yes"/>
      <point x="558" y="-10"/>
      <point x="661" y="73"/>
      <point x="661" y="223" type="curve" smooth="yes"/>
      <point x="661" y="714" type="line"/>
    </contour>
  </outline>
</glyph>
<glyph name="uni054E" format="2">
  <advance width="814"/>
  <unicode hex="054E"/>
  <note>
uni054E
</note>
  <outline>
    <contour>
      <point x="418" y="714" type="line"/>
      <point x="418" y="663" type="line"/>
      <point x="457" y="663"/>
      <point x="464" y="653"/>
      <point x="464" y="600" type="curve"/>
      <point x="464" y="402" type="line" smooth="yes"/>
      <point x="464" y="300"/>
      <point x="421" y="225"/>
      <point x="331" y="225" type="curve" smooth="yes"/>
      <point x="272" y="225"/>
      <point x="238" y="253"/>
      <point x="238" y="374" type="curve" smooth="yes"/>
      <point x="238" y="480" type="line"/>
      <point x="34" y="480" type="line"/>
      <point x="34" y="429" type="line"/>
      <point x="73" y="429"/>
      <point x="80" y="419"/>
      <point x="80" y="386" type="curve" smooth="yes"/>
      <point x="80" y="370" type="line" smooth="yes"/>
      <point x="80" y="219"/>
      <point x="146" y="154"/>
      <point x="290" y="154" type="curve" smooth="yes"/>
      <point x="384" y="154"/>
      <point x="427" y="185"/>
      <point x="461" y="229" type="curve"/>
      <point x="469" y="230" type="line"/>
      <point x="465" y="201"/>
      <point x="464" y="171"/>
      <point x="464" y="139" type="curve" smooth="yes"/>
      <point x="464" y="0" type="line"/>
      <point x="622" y="0" type="line"/>
      <point x="622" y="714" type="line"/>
    </contour>
    <contour>
      <point x="612" y="0" type="line"/>
      <point x="809" y="0" type="line"/>
      <point x="809" y="60" type="line"/>
      <point x="612" y="60" type="line"/>
    </contour>
  </outline>
</glyph>
<glyph name="uni054F" format="2">
  <advance width="601"/>
  <unicode hex="054F"/>
  <note>
uni054F
</note>
  <outline>
    <contour>
      <point x="271" y="-10" type="curve" smooth="yes"/>
      <point x="453" y="-10"/>
      <point x="559" y="80"/>
      <point x="559" y="209" type="curve" smooth="yes"/>
      <point x="559" y="307"/>
      <point x="500" y="366"/>
      <point x="349" y="421" type="curve" smooth="yes"/>
      <point x="202" y="475"/>
      <point x="169" y="514"/>
      <point x="169" y="571" type="curve" smooth="yes"/>
      <point x="169" y="631"/>
      <point x="217" y="659"/>
      <point x="277" y="659" type="curve" smooth="yes"/>
      <point x="376" y="659"/>
      <point x="408" y="607"/>
      <point x="408" y="521" type="curve"/>
      <point x="491" y="521"/>
      <point x="538" y="551"/>
      <point x="538" y="608" type="curve" smooth="yes"/>
      <point x="538" y="673"/>
      <point x="453" y="724"/>
      <point x="292" y="724" type="curve" smooth="yes"/>
      <point x="146" y="724"/>
      <point x="37" y="645"/>
      <point x="37" y="523" type="curve" smooth="yes"/>
      <point x="37" y="425"/>
      <point x="84" y="362"/>
      <point x="257" y="297" type="curve" smooth="yes"/>
      <point x="360" y="258"/>
      <point x="427" y="226"/>
      <point x="427" y="158" type="curve" smooth="yes"/>
      <point x="427" y="102"/>
      <point x="386" y="55"/>
      <point x="297" y="55" type="curve" smooth="yes"/>
      <point x="203" y="55"/>
      <point x="165" y="114"/>
      <point x="165" y="223" type="curve"/>
      <point x="92" y="223"/>
      <point x="30" y="198"/>
      <point x="30" y="130" type="curve" smooth="yes"/>
      <point x="30" y="65"/>
      <point x="92" y="-10"/>
    </contour>
  </outline>
</glyph>
<glyph name="uni0550" format="2">
  <advance width="721"/>
  <unicode hex="0550"/>
  <note>
uni0550
</note>
  <outline>
    <contour>
      <point x="380" y="724" type="curve" smooth="yes"/>
      <point x="203" y="724"/>
      <point x="100" y="641"/>
      <point x="100" y="491" type="curve" smooth="yes"/>
      <point x="100" y="0" type="line"/>
      <point x="303" y="0" type="line"/>
      <point x="303" y="51" type="line"/>
      <point x="264" y="51"/>
      <point x="258" y="61"/>
      <point x="258" y="114" type="curve" smooth="yes"/>
      <point x="258" y="516" type="line" smooth="yes"/>
      <point x="258" y="608"/>
      <point x="302" y="659"/>
      <point x="380" y="659" type="curve" smooth="yes"/>
      <point x="459" y="659"/>
      <point x="503" y="609"/>
      <point x="503" y="516" type="curve" smooth="yes"/>
      <point x="503" y="350" type="line"/>
      <point x="661" y="350" type="line"/>
      <point x="661" y="491" type="line" smooth="yes"/>
      <point x="661" y="640"/>
      <point x="558" y="724"/>
    </contour>
  </outline>
</glyph>
<glyph name="uni0551" format="2">
  <advance width="627"/>
  <unicode hex="0551"/>
  <note>
uni0551
</note>
  <outline>
    <contour>
      <point x="381" y="394" type="curve"/>
      <point x="381" y="397" type="line"/>
      <point x="522" y="432"/>
      <point x="560" y="489"/>
      <point x="560" y="561" type="curve" smooth="yes"/>
      <point x="560" y="650"/>
      <point x="494" y="724"/>
      <point x="307" y="724" type="curve" smooth="yes"/>
      <point x="111" y="724"/>
      <point x="52" y="635"/>
      <point x="52" y="554" type="curve" smooth="yes"/>
      <point x="52" y="474"/>
      <point x="84" y="437"/>
      <point x="183" y="396" type="curve"/>
      <point x="183" y="391" type="line"/>
      <point x="33" y="365" type="line"/>
      <point x="58" y="261" type="line"/>
      <point x="276" y="358" type="line"/>
      <point x="368" y="327"/>
      <point x="423" y="285"/>
      <point x="423" y="192" type="curve" smooth="yes"/>
      <point x="423" y="99"/>
      <point x="384" y="55"/>
      <point x="292" y="55" type="curve" smooth="yes"/>
      <point x="197" y="55"/>
      <point x="164" y="104"/>
      <point x="164" y="223" type="curve"/>
      <point x="91" y="223"/>
      <point x="24" y="198"/>
      <point x="24" y="130" type="curve" smooth="yes"/>
      <point x="24" y="65"/>
      <point x="102" y="-10"/>
      <point x="297" y="-10" type="curve" smooth="yes"/>
      <point x="492" y="-10"/>
      <point x="591" y="73"/>
      <point x="591" y="189" type="curve" smooth="yes"/>
      <point x="591" y="289"/>
      <point x="537" y="357"/>
    </contour>
    <contour>
      <point x="206" y="554" type="curve" smooth="yes"/>
      <point x="206" y="622"/>
      <point x="232" y="659"/>
      <point x="307" y="659" type="curve" smooth="yes"/>
      <point x="376" y="659"/>
      <point x="406" y="622"/>
      <point x="406" y="561" type="curve" smooth="yes"/>
      <point x="406" y="505"/>
      <point x="384" y="452"/>
      <point x="300" y="424" type="curve"/>
      <point x="224" y="452"/>
      <point x="206" y="495"/>
    </contour>
  </outline>
</glyph>
<glyph name="uni0552" format="2">
  <advance width="683"/>
  <unicode hex="0552"/>
  <note>
uni0552
</note>
  <outline>
    <contour>
      <point x="257" y="502" type="line"/>
      <point x="257" y="441" type="line"/>
      <point x="297" y="441" type="line" smooth="yes"/>
      <point x="328" y="441"/>
      <point x="339" y="433"/>
      <point x="392" y="319" type="curve" smooth="yes"/>
      <point x="442" y="212"/>
      <point x="482" y="190"/>
      <point x="567" y="190" type="curve" smooth="yes"/>
      <point x="673" y="190" type="line"/>
      <point x="673" y="250" type="line"/>
      <point x="656" y="250" type="line" smooth="yes"/>
      <point x="608" y="250"/>
      <point x="595" y="261"/>
      <point x="541" y="375" type="curve" smooth="yes"/>
      <point x="489" y="483"/>
      <point x="462" y="502"/>
      <point x="334" y="502" type="curve" smooth="yes"/>
    </contour>
    <contour>
      <point x="268" y="114" type="curve" smooth="yes"/>
      <point x="268" y="714" type="line"/>
      <point x="64" y="714" type="line"/>
      <point x="64" y="663" type="line"/>
      <point x="103" y="663"/>
      <point x="110" y="653"/>
      <point x="110" y="600" type="curve" smooth="yes"/>
      <point x="110" y="0" type="line"/>
      <point x="314" y="0" type="line"/>
      <point x="314" y="51" type="line"/>
      <point x="275" y="51"/>
      <point x="268" y="61"/>
    </contour>
  </outline>
</glyph>
<glyph name="uni0553" format="2">
  <advance width="850"/>
  <unicode hex="0553"/>
  <note>
uni0553
</note>
  <outline>
    <contour>
      <point x="529" y="134" type="line" smooth="yes"/>
      <point x="744" y="134"/>
      <point x="820" y="252"/>
      <point x="820" y="371" type="curve" smooth="yes"/>
      <point x="820" y="501"/>
      <point x="735" y="590"/>
      <point x="553" y="590" type="curve" smooth="yes"/>
      <point x="498" y="590" type="line"/>
      <point x="498" y="714" type="line"/>
      <point x="307" y="714" type="line"/>
      <point x="307" y="661" type="line"/>
      <point x="341" y="661"/>
      <point x="352" y="653"/>
      <point x="352" y="620" type="curve" smooth="yes"/>
      <point x="352" y="590" type="line"/>
      <point x="297" y="590" type="line" smooth="yes"/>
      <point x="115" y="590"/>
      <point x="30" y="501"/>
      <point x="30" y="371" type="curve" smooth="yes"/>
      <point x="30" y="252"/>
      <point x="106" y="134"/>
      <point x="321" y="134" type="curve" smooth="yes"/>
      <point x="352" y="134" type="line"/>
      <point x="352" y="0" type="line"/>
      <point x="544" y="0" type="line"/>
      <point x="544" y="53" type="line"/>
      <point x="509" y="53"/>
      <point x="498" y="61"/>
      <point x="498" y="100" type="curve" smooth="yes"/>
      <point x="498" y="134" type="line"/>
    </contour>
    <contour>
      <point x="352" y="192" type="line"/>
      <point x="323" y="192" type="line" smooth="yes"/>
      <point x="252" y="192"/>
      <point x="181" y="240"/>
      <point x="181" y="367" type="curve" smooth="yes"/>
      <point x="181" y="479"/>
      <point x="246" y="531"/>
      <point x="310" y="531" type="curve" smooth="yes"/>
      <point x="352" y="531" type="line"/>
    </contour>
    <contour>
      <point x="498" y="531" type="line"/>
      <point x="540" y="531" type="line" smooth="yes"/>
      <point x="604" y="531"/>
      <point x="669" y="479"/>
      <point x="669" y="367" type="curve" smooth="yes"/>
      <point x="669" y="240"/>
      <point x="598" y="192"/>
      <point x="527" y="192" type="curve" smooth="yes"/>
      <point x="498" y="192" type="line"/>
    </contour>
  </outline>
</glyph>
<glyph name="uni0554" format="2">
  <advance width="639"/>
  <unicode hex="0554"/>
  <note>
uni0554
</note>
  <outline>
    <contour>
      <point x="100" y="0" type="line"/>
      <point x="258" y="0" type="line"/>
      <point x="258" y="344" type="line"/>
      <point x="350" y="344" type="line" smooth="yes"/>
      <point x="518" y="344"/>
      <point x="591" y="416"/>
      <point x="591" y="529" type="curve" smooth="yes"/>
      <point x="591" y="653"/>
      <point x="524" y="724"/>
      <point x="350" y="724" type="curve" smooth="yes"/>
      <point x="186" y="724"/>
      <point x="100" y="650"/>
      <point x="100" y="505" type="curve" smooth="yes"/>
    </contour>
    <contour>
      <point x="314" y="404" type="curve" smooth="yes"/>
      <point x="258" y="404" type="line"/>
      <point x="258" y="502" type="line" smooth="yes"/>
      <point x="258" y="628"/>
      <point x="283" y="660"/>
      <point x="352" y="660" type="curve" smooth="yes"/>
      <point x="408" y="660"/>
      <point x="433" y="621"/>
      <point x="433" y="536" type="curve" smooth="yes"/>
      <point x="433" y="452"/>
      <point x="393" y="404"/>
    </contour>
    <contour>
      <point x="28" y="204" type="line"/>
      <point x="585" y="204" type="line"/>
      <point x="585" y="264" type="line"/>
      <point x="28" y="264" type="line"/>
    </contour>
  </outline>
</glyph>
<glyph name="uni0555" format="2">
  <advance width="787"/>
  <unicode hex="0555"/>
  <note>
uni0555
</note>
  <anchor x="393" y="714" name="top"/>
  <outline>
    <contour>
      <point x="394" y="-10" type="curve" smooth="yes"/>
      <point x="611" y="-10"/>
      <point x="732" y="137"/>
      <point x="732" y="358" type="curve" smooth="yes"/>
      <point x="732" y="580"/>
      <point x="611" y="725"/>
      <point x="395" y="725" type="curve" smooth="yes"/>
      <point x="166" y="725"/>
      <point x="55" y="580"/>
      <point x="55" y="359" type="curve" smooth="yes"/>
      <point x="55" y="137"/>
      <point x="166" y="-10"/>
    </contour>
    <contour>
      <point x="394" y="55" type="curve" smooth="yes"/>
      <point x="270" y="55"/>
      <point x="223" y="167"/>
      <point x="223" y="358" type="curve" smooth="yes"/>
      <point x="223" y="549"/>
      <point x="270" y="660"/>
      <point x="395" y="660" type="curve" smooth="yes"/>
      <point x="519" y="660"/>
      <point x="564" y="549"/>
      <point x="564" y="358" type="curve" smooth="yes"/>
      <point x="564" y="167"/>
      <point x="519" y="55"/>
    </contour>
  </outline>
</glyph>
<glyph name="uni0556" format="2">
  <advance width="737"/>
  <unicode hex="0556"/>
  <note>
uni0556
</note>
  <outline>
    <contour>
      <point x="364" y="-10" type="curve" smooth="yes"/>
      <point x="621" y="-10"/>
      <point x="695" y="80"/>
      <point x="695" y="189" type="curve" smooth="yes"/>
      <point x="695" y="308"/>
      <point x="633" y="370"/>
      <point x="383" y="405" type="curve" smooth="yes"/>
      <point x="220" y="428"/>
      <point x="199" y="464"/>
      <point x="199" y="544" type="curve" smooth="yes"/>
      <point x="199" y="621"/>
      <point x="236" y="662"/>
      <point x="304" y="662" type="curve"/>
      <point x="304" y="724" type="line"/>
      <point x="156" y="724"/>
      <point x="57" y="645"/>
      <point x="57" y="544" type="curve" smooth="yes"/>
      <point x="57" y="425"/>
      <point x="103" y="381"/>
      <point x="319" y="351" type="curve" smooth="yes"/>
      <point x="513" y="324"/>
      <point x="553" y="281"/>
      <point x="553" y="181" type="curve" smooth="yes"/>
      <point x="553" y="97"/>
      <point x="516" y="50"/>
      <point x="345" y="50" type="curve" smooth="yes"/>
      <point x="200" y="50"/>
      <point x="140" y="107"/>
      <point x="140" y="233" type="curve"/>
      <point x="82" y="233"/>
      <point x="30" y="198"/>
      <point x="30" y="130" type="curve" smooth="yes"/>
      <point x="30" y="65"/>
      <point x="115" y="-10"/>
    </contour>
    <contour>
      <point x="304" y="724" type="line"/>
      <point x="304" y="5" type="line"/>
      <point x="448" y="5" type="line"/>
      <point x="448" y="724" type="line"/>
    </contour>
  </outline>
</glyph>
<glyph name="uni0559" format="2">
  <advance width="255"/>
  <unicode hex="0559"/>
  <note>
uni0559
</note>
  <outline>
    <contour>
      <point x="206" y="427" type="curve"/>
      <point x="206" y="557" type="line"/>
      <point x="165" y="560"/>
      <point x="141" y="580"/>
      <point x="141" y="623" type="curve" smooth="yes"/>
      <point x="141" y="662"/>
      <point x="164" y="690"/>
      <point x="213" y="708" type="curve"/>
      <point x="193" y="760" type="line"/>
      <point x="97" y="729"/>
      <point x="42" y="661"/>
      <point x="42" y="573" type="curve" smooth="yes"/>
      <point x="42" y="485"/>
      <point x="96" y="429"/>
    </contour>
  </outline>
</glyph>
<glyph name="uni055A" format="2">
  <advance width="255"/>
  <unicode hex="055A"/>
  <note>
uni055A
</note>
  <outline>
    <contour>
      <point x="49" y="760" type="curve"/>
      <point x="49" y="630" type="line"/>
      <point x="90" y="627"/>
      <point x="114" y="607"/>
      <point x="114" y="567" type="curve" smooth="yes"/>
      <point x="114" y="525"/>
      <point x="91" y="497"/>
      <point x="42" y="479" type="curve"/>
      <point x="62" y="427" type="line"/>
      <point x="158" y="458"/>
      <point x="213" y="526"/>
      <point x="213" y="614" type="curve" smooth="yes"/>
      <point x="213" y="702"/>
      <point x="159" y="758"/>
    </contour>
  </outline>
</glyph>
<glyph name="uni055B" format="2">
  <advance width="256"/>
  <unicode hex="055B"/>
  <note>
uni055B
</note>
  <outline>
    <contour>
      <point x="54" y="603" type="line"/>
      <point x="138" y="603" type="line"/>
      <point x="167" y="669"/>
      <point x="190" y="739"/>
      <point x="208" y="800" type="curve"/>
      <point x="199" y="814" type="line"/>
      <point x="90" y="814" type="line"/>
      <point x="87" y="787"/>
      <point x="79" y="748"/>
      <point x="70" y="705" type="curve" smooth="yes"/>
      <point x="54" y="624" type="line"/>
    </contour>
  </outline>
</glyph>
<glyph name="uni055C" format="2">
  <advance width="309"/>
  <unicode hex="055C"/>
  <note>
uni055C
</note>
  <outline>
    <contour>
      <point x="85" y="603" type="curve"/>
      <point x="185" y="603" type="line"/>
      <point x="185" y="615" type="line" smooth="yes"/>
      <point x="185" y="639"/>
      <point x="195" y="660"/>
      <point x="226" y="679" type="curve" smooth="yes"/>
      <point x="287" y="716"/>
      <point x="297" y="740"/>
      <point x="297" y="814" type="curve"/>
      <point x="197" y="814" type="line"/>
      <point x="197" y="792" type="line" smooth="yes"/>
      <point x="197" y="769"/>
      <point x="187" y="757"/>
      <point x="170" y="746" type="curve" smooth="yes"/>
      <point x="106" y="707"/>
      <point x="85" y="685"/>
    </contour>
  </outline>
</glyph>
<glyph name="uni055D" format="2">
  <advance width="256"/>
  <unicode hex="055D"/>
  <note>
uni055D
</note>
  <outline>
    <contour>
      <point x="202" y="603" type="line"/>
      <point x="202" y="624" type="line"/>
      <point x="186" y="705" type="line" smooth="yes"/>
      <point x="177" y="748"/>
      <point x="169" y="787"/>
      <point x="166" y="814" type="curve"/>
      <point x="57" y="814" type="line"/>
      <point x="48" y="800" type="line"/>
      <point x="66" y="739"/>
      <point x="89" y="669"/>
      <point x="118" y="603" type="curve"/>
    </contour>
  </outline>
</glyph>
<glyph name="uni055E" format="2">
  <advance width="494"/>
  <unicode hex="055E"/>
  <note>
uni055E
</note>
  <outline>
    <contour>
      <point x="82" y="565" type="curve"/>
      <point x="205" y="565" type="line"/>
      <point x="205" y="660"/>
      <point x="222" y="758"/>
      <point x="293" y="758" type="curve" smooth="yes"/>
      <point x="322" y="758"/>
      <point x="340" y="740"/>
      <point x="340" y="713" type="curve" smooth="yes"/>
      <point x="340" y="682"/>
      <point x="321" y="664"/>
      <point x="289" y="664" type="curve" smooth="yes"/>
      <point x="269" y="664"/>
      <point x="253" y="669"/>
      <point x="242" y="675" type="curve"/>
      <point x="242" y="625"/>
      <point x="283" y="592"/>
      <point x="343" y="592" type="curve" smooth="yes"/>
      <point x="419" y="592"/>
      <point x="464" y="637"/>
      <point x="464" y="705" type="curve" smooth="yes"/>
      <point x="464" y="779"/>
      <point x="396" y="829"/>
      <point x="304" y="829" type="curve" smooth="yes"/>
      <point x="173" y="829"/>
      <point x="82" y="722"/>
    </contour>
  </outline>
</glyph>
<glyph name="uni055F" format="2">
  <advance width="440"/>
  <unicode hex="055F"/>
  <note>
uni055F
</note>
  <outline>
    <contour>
      <point x="237" y="603" type="curve" smooth="yes"/>
      <point x="400" y="603" type="line"/>
      <point x="400" y="678" type="line"/>
      <point x="256" y="678" type="line" smooth="yes"/>
      <point x="190" y="678"/>
      <point x="166" y="694"/>
      <point x="166" y="731" type="curve" smooth="yes"/>
      <point x="166" y="761"/>
      <point x="186" y="777"/>
      <point x="222" y="777" type="curve" smooth="yes"/>
      <point x="243" y="777"/>
      <point x="266" y="772"/>
      <point x="280" y="766" type="curve"/>
      <point x="280" y="814"/>
      <point x="241" y="855"/>
      <point x="179" y="855" type="curve" smooth="yes"/>
      <point x="101" y="855"/>
      <point x="54" y="808"/>
      <point x="54" y="731" type="curve" smooth="yes"/>
      <point x="54" y="649"/>
      <point x="114" y="603"/>
    </contour>
  </outline>
</glyph>
<glyph name="uni0560" format="2">
  <advance width="900"/>
  <unicode hex="0560"/>
  <note>
uni0561
</note>
  <anchor x="453" y="492" name="top"/>
  <outline>
    <contour>
      <point x="272" y="0" type="line"/>
      <point x="272" y="53" type="line"/>
      <point x="230" y="53"/>
      <point x="227" y="65"/>
      <point x="227" y="103" type="curve" smooth="yes"/>
      <point x="227" y="265" type="line" smooth="yes"/>
      <point x="227" y="347"/>
      <point x="248" y="420"/>
      <point x="309" y="420" type="curve" smooth="yes"/>
      <point x="359" y="420"/>
      <point x="377" y="371"/>
      <point x="377" y="285" type="curve" smooth="yes"/>
      <point x="377" y="0" type="line"/>
      <point x="574" y="0" type="line"/>
      <point x="574" y="53" type="line"/>
      <point x="534" y="53"/>
      <point x="529" y="62"/>
      <point x="529" y="103" type="curve" smooth="yes"/>
      <point x="529" y="277" type="line" smooth="yes"/>
      <point x="529" y="354"/>
      <point x="553" y="420"/>
      <point x="612" y="420" type="curve" smooth="yes"/>
      <point x="668" y="420"/>
      <point x="679" y="371"/>
      <point x="679" y="285" type="curve" smooth="yes"/>
      <point x="679" y="0" type="line"/>
      <point x="876" y="0" type="line"/>
      <point x="876" y="53" type="line"/>
      <point x="836" y="53"/>
      <point x="831" y="58"/>
      <point x="831" y="96" type="curve" smooth="yes"/>
      <point x="831" y="312" type="line" smooth="yes"/>
      <point x="831" y="447"/>
      <point x="781" y="505"/>
      <point x="681" y="505" type="curve" smooth="yes"/>
      <point x="626" y="505"/>
      <point x="564" y="496"/>
      <point x="524" y="421" type="curve"/>
      <point x="515" y="421" type="line"/>
      <point x="491" y="480"/>
      <point x="439" y="505"/>
      <point x="369" y="505" type="curve" smooth="yes"/>
      <point x="307" y="505"/>
      <point x="268" y="496"/>
      <point x="228" y="421" type="curve"/>
      <point x="223" y="421" type="line"/>
      <point x="210" y="492" type="line"/>
      <point x="30" y="492" type="line"/>
      <point x="30" y="442" type="line"/>
      <point x="70" y="442"/>
      <point x="75" y="433"/>
      <point x="75" y="400" type="curve" smooth="yes"/>
      <point x="75" y="0" type="line"/>
    </contour>
  </outline>
</glyph>
<glyph name="uni0561" format="2">
  <advance width="900"/>
  <unicode hex="0561"/>
  <note>
uni0561
</note>
  <anchor x="447" y="492" name="top"/>
  <outline>
    <contour>
      <point x="628" y="492" type="line"/>
      <point x="628" y="439" type="line"/>
      <point x="670" y="439"/>
      <point x="673" y="427"/>
      <point x="673" y="389" type="curve" smooth="yes"/>
      <point x="673" y="227" type="line" smooth="yes"/>
      <point x="673" y="145"/>
      <point x="652" y="72"/>
      <point x="591" y="72" type="curve" smooth="yes"/>
      <point x="541" y="72"/>
      <point x="523" y="121"/>
      <point x="523" y="207" type="curve" smooth="yes"/>
      <point x="523" y="492" type="line"/>
      <point x="326" y="492" type="line"/>
      <point x="326" y="439" type="line"/>
      <point x="366" y="439"/>
      <point x="371" y="430"/>
      <point x="371" y="389" type="curve" smooth="yes"/>
      <point x="371" y="215" type="line" smooth="yes"/>
      <point x="371" y="138"/>
      <point x="347" y="72"/>
      <point x="288" y="72" type="curve" smooth="yes"/>
      <point x="232" y="72"/>
      <point x="221" y="121"/>
      <point x="221" y="207" type="curve" smooth="yes"/>
      <point x="221" y="492" type="line"/>
      <point x="24" y="492" type="line"/>
      <point x="24" y="439" type="line"/>
      <point x="64" y="439"/>
      <point x="69" y="434"/>
      <point x="69" y="396" type="curve" smooth="yes"/>
      <point x="69" y="180" type="line" smooth="yes"/>
      <point x="69" y="45"/>
      <point x="119" y="-13"/>
      <point x="219" y="-13" type="curve" smooth="yes"/>
      <point x="274" y="-13"/>
      <point x="336" y="-4"/>
      <point x="376" y="71" type="curve"/>
      <point x="385" y="71" type="line"/>
      <point x="409" y="12"/>
      <point x="461" y="-13"/>
      <point x="531" y="-13" type="curve" smooth="yes"/>
      <point x="593" y="-13"/>
      <point x="632" y="-4"/>
      <point x="672" y="71" type="curve"/>
      <point x="677" y="71" type="line"/>
      <point x="690" y="0" type="line"/>
      <point x="870" y="0" type="line"/>
      <point x="870" y="50" type="line"/>
      <point x="830" y="50"/>
      <point x="825" y="59"/>
      <point x="825" y="92" type="curve" smooth="yes"/>
      <point x="825" y="492" type="line"/>
    </contour>
  </outline>
</glyph>
<glyph name="uni0562" format="2">
  <advance width="600"/>
  <unicode hex="0562"/>
  <note>
uni0562
</note>
  <outline>
    <contour>
      <point x="227" y="-163" type="curve" smooth="yes"/>
      <point x="227" y="265" type="line" smooth="yes"/>
      <point x="227" y="347"/>
      <point x="241" y="417"/>
      <point x="307" y="417" type="curve" smooth="yes"/>
      <point x="362" y="417"/>
      <point x="379" y="368"/>
      <point x="379" y="282" type="curve" smooth="yes"/>
      <point x="379" y="211" type="line"/>
      <point x="576" y="211" type="line"/>
      <point x="576" y="264" type="line"/>
      <point x="535" y="264"/>
      <point x="531" y="273"/>
      <point x="531" y="301" type="curve" smooth="yes"/>
      <point x="531" y="322" type="line" smooth="yes"/>
      <point x="531" y="444"/>
      <point x="473" y="502"/>
      <point x="374" y="502" type="curve" smooth="yes"/>
      <point x="311" y="502"/>
      <point x="268" y="493"/>
      <point x="228" y="421" type="curve"/>
      <point x="223" y="421" type="line"/>
      <point x="210" y="492" type="line"/>
      <point x="30" y="492" type="line"/>
      <point x="30" y="439" type="line"/>
      <point x="62" y="439"/>
      <point x="75" y="430"/>
      <point x="75" y="391" type="curve" smooth="yes"/>
      <point x="75" y="-265" type="line"/>
      <point x="272" y="-265" type="line"/>
      <point x="272" y="-212" type="line"/>
      <point x="232" y="-212"/>
      <point x="227" y="-203"/>
    </contour>
    <contour>
      <point x="221" y="0" type="line"/>
      <point x="561" y="0" type="line"/>
      <point x="561" y="60" type="line"/>
      <point x="221" y="60" type="line"/>
    </contour>
  </outline>
</glyph>
<glyph name="uni0563" format="2">
  <advance width="661"/>
  <unicode hex="0563"/>
  <note>
uni0563
</note>
  <outline>
    <contour>
      <point x="418" y="492" type="line"/>
      <point x="399" y="421" type="line"/>
      <point x="391" y="421" type="line"/>
      <point x="361" y="478"/>
      <point x="318" y="502"/>
      <point x="257" y="502" type="curve" smooth="yes"/>
      <point x="127" y="502"/>
      <point x="57" y="411"/>
      <point x="57" y="248" type="curve" smooth="yes"/>
      <point x="57" y="81"/>
      <point x="128" y="-9"/>
      <point x="255" y="-9" type="curve" smooth="yes"/>
      <point x="311" y="-9"/>
      <point x="349" y="16"/>
      <point x="383" y="72" type="curve"/>
      <point x="392" y="72" type="line"/>
      <point x="386" y="6"/>
      <point x="384" y="-26"/>
      <point x="384" y="-55" type="curve" smooth="yes"/>
      <point x="384" y="-265" type="line"/>
      <point x="579" y="-265" type="line"/>
      <point x="579" y="-215" type="line"/>
      <point x="542" y="-215"/>
      <point x="536" y="-208"/>
      <point x="536" y="-163" type="curve" smooth="yes"/>
      <point x="536" y="492" type="line"/>
    </contour>
    <contour>
      <point x="296" y="64" type="curve" smooth="yes"/>
      <point x="226" y="64"/>
      <point x="211" y="153"/>
      <point x="211" y="247" type="curve" smooth="yes"/>
      <point x="211" y="341"/>
      <point x="225" y="428"/>
      <point x="296" y="428" type="curve" smooth="yes"/>
      <point x="359" y="428"/>
      <point x="391" y="376"/>
      <point x="391" y="246" type="curve" smooth="yes"/>
      <point x="391" y="121"/>
      <point x="358" y="64"/>
    </contour>
    <contour>
      <point x="496" y="0" type="line"/>
      <point x="656" y="0" type="line"/>
      <point x="656" y="60" type="line"/>
      <point x="496" y="60" type="line"/>
    </contour>
  </outline>
</glyph>
<glyph name="uni0564" format="2">
  <advance width="656"/>
  <unicode hex="0564"/>
  <note>
uni0564
</note>
  <outline>
    <contour>
      <point x="531" y="-162" type="curve" smooth="yes"/>
      <point x="531" y="309" type="line" smooth="yes"/>
      <point x="531" y="444"/>
      <point x="473" y="502"/>
      <point x="374" y="502" type="curve" smooth="yes"/>
      <point x="311" y="502"/>
      <point x="268" y="493"/>
      <point x="228" y="421" type="curve"/>
      <point x="223" y="421" type="line"/>
      <point x="210" y="492" type="line"/>
      <point x="30" y="492" type="line"/>
      <point x="30" y="439" type="line"/>
      <point x="62" y="439"/>
      <point x="75" y="430"/>
      <point x="75" y="391" type="curve" smooth="yes"/>
      <point x="75" y="0" type="line"/>
      <point x="272" y="0" type="line"/>
      <point x="272" y="53" type="line"/>
      <point x="232" y="53"/>
      <point x="227" y="62"/>
      <point x="227" y="102" type="curve" smooth="yes"/>
      <point x="227" y="265" type="line" smooth="yes"/>
      <point x="227" y="347"/>
      <point x="241" y="417"/>
      <point x="307" y="417" type="curve" smooth="yes"/>
      <point x="362" y="417"/>
      <point x="379" y="368"/>
      <point x="379" y="282" type="curve" smooth="yes"/>
      <point x="379" y="-266" type="line"/>
      <point x="576" y="-266" type="line"/>
      <point x="576" y="-213" type="line"/>
      <point x="535" y="-213"/>
      <point x="531" y="-204"/>
    </contour>
    <contour>
      <point x="491" y="0" type="line"/>
      <point x="651" y="0" type="line"/>
      <point x="651" y="60" type="line"/>
      <point x="491" y="60" type="line"/>
    </contour>
  </outline>
</glyph>
<glyph name="uni0565" format="2">
  <advance width="600"/>
  <unicode hex="0565"/>
  <note>
uni0565
</note>
  <outline>
    <contour>
      <point x="525" y="319" type="line"/>
      <point x="373" y="319" type="line"/>
      <point x="373" y="227" type="line" smooth="yes"/>
      <point x="373" y="145"/>
      <point x="359" y="72"/>
      <point x="293" y="72" type="curve" smooth="yes"/>
      <point x="238" y="72"/>
      <point x="221" y="121"/>
      <point x="221" y="207" type="curve" smooth="yes"/>
      <point x="221" y="760" type="line"/>
      <point x="24" y="760" type="line"/>
      <point x="24" y="707" type="line"/>
      <point x="65" y="707"/>
      <point x="69" y="698"/>
      <point x="69" y="656" type="curve" smooth="yes"/>
      <point x="69" y="180" type="line" smooth="yes"/>
      <point x="69" y="45"/>
      <point x="127" y="-13"/>
      <point x="226" y="-13" type="curve" smooth="yes"/>
      <point x="289" y="-13"/>
      <point x="332" y="-4"/>
      <point x="372" y="71" type="curve"/>
      <point x="377" y="71" type="line"/>
      <point x="390" y="0" type="line"/>
      <point x="570" y="0" type="line"/>
      <point x="570" y="53" type="line"/>
      <point x="538" y="53"/>
      <point x="525" y="62"/>
      <point x="525" y="101" type="curve" smooth="yes"/>
    </contour>
    <contour>
      <point x="197" y="432" type="line"/>
      <point x="557" y="432" type="line"/>
      <point x="557" y="492" type="line"/>
      <point x="197" y="492" type="line"/>
    </contour>
  </outline>
</glyph>
<glyph name="uni0566" format="2">
  <advance width="646"/>
  <unicode hex="0566"/>
  <note>
uni0566
</note>
  <outline>
    <contour>
      <point x="418" y="492" type="line"/>
      <point x="399" y="421" type="line"/>
      <point x="391" y="421" type="line"/>
      <point x="361" y="478"/>
      <point x="318" y="502"/>
      <point x="257" y="502" type="curve" smooth="yes"/>
      <point x="127" y="502"/>
      <point x="57" y="411"/>
      <point x="57" y="248" type="curve" smooth="yes"/>
      <point x="57" y="81"/>
      <point x="128" y="-9"/>
      <point x="255" y="-9" type="curve" smooth="yes"/>
      <point x="311" y="-9"/>
      <point x="349" y="16"/>
      <point x="383" y="72" type="curve"/>
      <point x="392" y="72" type="line"/>
      <point x="386" y="6"/>
      <point x="384" y="-26"/>
      <point x="384" y="-55" type="curve" smooth="yes"/>
      <point x="384" y="-265" type="line"/>
      <point x="536" y="-265" type="line"/>
      <point x="536" y="492" type="line"/>
    </contour>
    <contour>
      <point x="296" y="64" type="curve" smooth="yes"/>
      <point x="226" y="64"/>
      <point x="211" y="153"/>
      <point x="211" y="247" type="curve" smooth="yes"/>
      <point x="211" y="341"/>
      <point x="225" y="428"/>
      <point x="296" y="428" type="curve" smooth="yes"/>
      <point x="359" y="428"/>
      <point x="391" y="376"/>
      <point x="391" y="246" type="curve" smooth="yes"/>
      <point x="391" y="121"/>
      <point x="358" y="64"/>
    </contour>
    <contour>
      <point x="516" y="-265" type="line"/>
      <point x="666" y="-265" type="line"/>
      <point x="666" y="-205" type="line"/>
      <point x="516" y="-205" type="line"/>
    </contour>
  </outline>
</glyph>
<glyph name="uni0567" format="2">
  <advance width="545"/>
  <unicode hex="0567"/>
  <note>
uni0567
</note>
  <outline>
    <contour>
      <point x="500" y="432" type="line"/>
      <point x="500" y="492" type="line"/>
      <point x="227" y="492" type="line"/>
      <point x="227" y="760" type="line"/>
      <point x="30" y="760" type="line"/>
      <point x="30" y="709" type="line"/>
      <point x="69" y="709"/>
      <point x="75" y="700"/>
      <point x="75" y="667" type="curve" smooth="yes"/>
      <point x="75" y="10" type="line"/>
      <point x="87" y="0" type="line"/>
      <point x="95" y="0" type="line"/>
      <point x="145" y="21"/>
      <point x="209" y="33"/>
      <point x="268" y="33" type="curve" smooth="yes"/>
      <point x="331" y="33"/>
      <point x="363" y="13"/>
      <point x="363" y="-29" type="curve" smooth="yes"/>
      <point x="363" y="-86"/>
      <point x="322" y="-117"/>
      <point x="211" y="-117" type="curve"/>
      <point x="211" y="-152"/>
      <point x="255" y="-186"/>
      <point x="321" y="-186" type="curve" smooth="yes"/>
      <point x="413" y="-186"/>
      <point x="495" y="-130"/>
      <point x="495" y="-31" type="curve" smooth="yes"/>
      <point x="495" y="51"/>
      <point x="430" y="106"/>
      <point x="326" y="106" type="curve" smooth="yes"/>
      <point x="291" y="106"/>
      <point x="255" y="99"/>
      <point x="227" y="88" type="curve"/>
      <point x="227" y="432" type="line"/>
    </contour>
  </outline>
</glyph>
<glyph name="uni0569" format="2">
  <advance width="753"/>
  <unicode hex="0569"/>
  <note>
uni0569
</note>
  <outline>
    <contour>
      <point x="96" y="-265" type="line"/>
      <point x="293" y="-265" type="line"/>
      <point x="293" y="-215" type="line"/>
      <point x="253" y="-215"/>
      <point x="248" y="-208"/>
      <point x="248" y="-154" type="curve" smooth="yes"/>
      <point x="248" y="255" type="line" smooth="yes"/>
      <point x="248" y="363"/>
      <point x="292" y="427"/>
      <point x="389" y="427" type="curve" smooth="yes"/>
      <point x="481" y="427"/>
      <point x="522" y="376"/>
      <point x="522" y="246" type="curve" smooth="yes"/>
      <point x="522" y="85"/>
      <point x="512" y="50"/>
      <point x="478" y="50" type="curve" smooth="yes"/>
      <point x="451" y="50"/>
      <point x="433" y="78"/>
      <point x="433" y="137" type="curve" smooth="yes"/>
      <point x="433" y="196"/>
      <point x="452" y="229"/>
      <point x="493" y="229" type="curve" smooth="yes"/>
      <point x="551" y="229"/>
      <point x="642" y="214"/>
      <point x="723" y="185" type="curve"/>
      <point x="741" y="239" type="line"/>
      <point x="658" y="271"/>
      <point x="568" y="290"/>
      <point x="471" y="290" type="curve" smooth="yes"/>
      <point x="365" y="290"/>
      <point x="299" y="232"/>
      <point x="299" y="146" type="curve" smooth="yes"/>
      <point x="299" y="47"/>
      <point x="354" y="-10"/>
      <point x="464" y="-10" type="curve" smooth="yes"/>
      <point x="613" y="-10"/>
      <point x="671" y="90"/>
      <point x="671" y="244" type="curve" smooth="yes"/>
      <point x="671" y="407"/>
      <point x="574" y="502"/>
      <point x="436" y="502" type="curve" smooth="yes"/>
      <point x="353" y="502"/>
      <point x="289" y="475"/>
      <point x="249" y="420" type="curve"/>
      <point x="244" y="420" type="line"/>
      <point x="232" y="492" type="line"/>
      <point x="51" y="492" type="line"/>
      <point x="51" y="441" type="line"/>
      <point x="90" y="441"/>
      <point x="96" y="431"/>
      <point x="96" y="378" type="curve" smooth="yes"/>
    </contour>
  </outline>
</glyph>
<glyph name="uni056A" format="2">
  <advance width="662"/>
  <unicode hex="056A"/>
  <note>
uni056A
</note>
  <outline>
    <contour>
      <point x="378" y="492" type="line"/>
      <point x="322" y="492" type="line" smooth="yes"/>
      <point x="138" y="489"/>
      <point x="47" y="409"/>
      <point x="47" y="246" type="curve" smooth="yes"/>
      <point x="47" y="87"/>
      <point x="133" y="-9"/>
      <point x="278" y="-9" type="curve" smooth="yes"/>
      <point x="426" y="-9"/>
      <point x="530" y="91"/>
      <point x="530" y="248" type="curve" smooth="yes"/>
      <point x="530" y="760" type="line"/>
      <point x="332" y="760" type="line"/>
      <point x="332" y="709" type="line"/>
      <point x="373" y="709"/>
      <point x="378" y="702"/>
      <point x="378" y="663" type="curve" smooth="yes"/>
    </contour>
    <contour>
      <point x="327" y="432" type="curve" smooth="yes"/>
      <point x="378" y="432" type="line"/>
      <point x="378" y="246" type="line" smooth="yes"/>
      <point x="378" y="140"/>
      <point x="365" y="52"/>
      <point x="287" y="52" type="curve" smooth="yes"/>
      <point x="220" y="52"/>
      <point x="201" y="150"/>
      <point x="201" y="245" type="curve" smooth="yes"/>
      <point x="201" y="385"/>
      <point x="234" y="432"/>
    </contour>
    <contour>
      <point x="520" y="492" type="line"/>
      <point x="520" y="432" type="line"/>
      <point x="657" y="432" type="line"/>
      <point x="657" y="492" type="line"/>
    </contour>
  </outline>
</glyph>
<glyph name="uni056C" format="2">
  <advance width="381"/>
  <unicode hex="056C"/>
  <note>
uni056C
</note>
  <outline>
    <contour>
      <point x="401" y="-160" type="line"/>
      <point x="348" y="-160" type="line"/>
      <point x="348" y="-201"/>
      <point x="339" y="-205"/>
      <point x="297" y="-205" type="curve" smooth="yes"/>
      <point x="237" y="-205" type="line"/>
      <point x="237" y="492" type="line"/>
      <point x="30" y="492" type="line"/>
      <point x="30" y="439" type="line"/>
      <point x="45" y="439" type="line" smooth="yes"/>
      <point x="77" y="439"/>
      <point x="85" y="433"/>
      <point x="85" y="391" type="curve" smooth="yes"/>
      <point x="85" y="-265" type="line"/>
      <point x="401" y="-265" type="line"/>
    </contour>
  </outline>
</glyph>
<glyph name="uni056D" format="2">
  <advance width="910"/>
  <unicode hex="056D"/>
  <note>
uni056D
</note>
  <outline>
    <contour>
      <point x="835" y="101" type="curve" smooth="yes"/>
      <point x="835" y="492" type="line"/>
      <point x="638" y="492" type="line"/>
      <point x="638" y="439" type="line"/>
      <point x="678" y="439"/>
      <point x="683" y="430"/>
      <point x="683" y="390" type="curve" smooth="yes"/>
      <point x="683" y="227" type="line" smooth="yes"/>
      <point x="683" y="145"/>
      <point x="669" y="72"/>
      <point x="603" y="72" type="curve" smooth="yes"/>
      <point x="548" y="72"/>
      <point x="531" y="121"/>
      <point x="531" y="207" type="curve" smooth="yes"/>
      <point x="531" y="309" type="line" smooth="yes"/>
      <point x="531" y="444"/>
      <point x="473" y="502"/>
      <point x="374" y="502" type="curve" smooth="yes"/>
      <point x="311" y="502"/>
      <point x="264" y="486"/>
      <point x="228" y="421" type="curve"/>
      <point x="223" y="421" type="line"/>
      <point x="225" y="444"/>
      <point x="227" y="467"/>
      <point x="227" y="492" type="curve" smooth="yes"/>
      <point x="227" y="760" type="line"/>
      <point x="30" y="760" type="line"/>
      <point x="30" y="707" type="line"/>
      <point x="62" y="707"/>
      <point x="75" y="698"/>
      <point x="75" y="659" type="curve" smooth="yes"/>
      <point x="75" y="-265" type="line"/>
      <point x="272" y="-265" type="line"/>
      <point x="272" y="-212" type="line"/>
      <point x="232" y="-212"/>
      <point x="227" y="-203"/>
      <point x="227" y="-163" type="curve" smooth="yes"/>
      <point x="227" y="265" type="line" smooth="yes"/>
      <point x="227" y="347"/>
      <point x="241" y="417"/>
      <point x="307" y="417" type="curve" smooth="yes"/>
      <point x="362" y="417"/>
      <point x="379" y="368"/>
      <point x="379" y="282" type="curve" smooth="yes"/>
      <point x="379" y="180" type="line" smooth="yes"/>
      <point x="379" y="45"/>
      <point x="437" y="-13"/>
      <point x="536" y="-13" type="curve" smooth="yes"/>
      <point x="599" y="-13"/>
      <point x="642" y="-4"/>
      <point x="682" y="71" type="curve"/>
      <point x="687" y="71" type="line"/>
      <point x="700" y="0" type="line"/>
      <point x="880" y="0" type="line"/>
      <point x="880" y="53" type="line"/>
      <point x="848" y="53"/>
      <point x="835" y="62"/>
    </contour>
  </outline>
</glyph>
<glyph name="uni056E" format="2">
  <advance width="600"/>
  <unicode hex="056E"/>
  <note>
uni056E
</note>
  <outline>
    <contour>
      <point x="285" y="-10" type="curve" smooth="yes"/>
      <point x="455" y="-10"/>
      <point x="543" y="73"/>
      <point x="543" y="248" type="curve" smooth="yes"/>
      <point x="543" y="314"/>
      <point x="520" y="379"/>
      <point x="483" y="432" type="curve"/>
      <point x="585" y="432" type="line"/>
      <point x="585" y="492" type="line"/>
      <point x="278" y="492" type="line" smooth="yes"/>
      <point x="148" y="492"/>
      <point x="47" y="406"/>
      <point x="47" y="226" type="curve" smooth="yes"/>
      <point x="47" y="78"/>
      <point x="130" y="-10"/>
    </contour>
    <contour>
      <point x="288" y="54" type="curve" smooth="yes"/>
      <point x="232" y="54"/>
      <point x="202" y="105"/>
      <point x="202" y="225" type="curve" smooth="yes"/>
      <point x="202" y="375"/>
      <point x="234" y="432"/>
      <point x="309" y="432" type="curve" smooth="yes"/>
      <point x="332" y="432" type="line"/>
      <point x="365" y="395"/>
      <point x="388" y="326"/>
      <point x="388" y="246" type="curve" smooth="yes"/>
      <point x="388" y="106"/>
      <point x="355" y="54"/>
    </contour>
    <contour>
      <point x="297" y="482" type="curve"/>
      <point x="444" y="482" type="line"/>
      <point x="427" y="499"/>
      <point x="395" y="535"/>
      <point x="370" y="569" type="curve" smooth="yes"/>
      <point x="341" y="608"/>
      <point x="333" y="629"/>
      <point x="333" y="649" type="curve" smooth="yes"/>
      <point x="333" y="672"/>
      <point x="344" y="691"/>
      <point x="371" y="715" type="curve"/>
      <point x="344" y="745"/>
      <point x="303" y="765"/>
      <point x="265" y="765" type="curve" smooth="yes"/>
      <point x="208" y="765"/>
      <point x="165" y="730"/>
      <point x="165" y="682" type="curve" smooth="yes"/>
      <point x="165" y="656"/>
      <point x="174" y="630"/>
      <point x="209" y="584" type="curve" smooth="yes"/>
      <point x="244" y="538"/>
      <point x="274" y="504"/>
    </contour>
  </outline>
</glyph>
<glyph name="uni056F" format="2">
  <advance width="600"/>
  <unicode hex="056F"/>
  <note>
uni056F
</note>
  <outline>
    <contour>
      <point x="373" y="-265" type="line"/>
      <point x="570" y="-265" type="line"/>
      <point x="570" y="-212" type="line"/>
      <point x="538" y="-212"/>
      <point x="525" y="-203"/>
      <point x="525" y="-164" type="curve" smooth="yes"/>
      <point x="525" y="492" type="line"/>
      <point x="328" y="492" type="line"/>
      <point x="328" y="439" type="line"/>
      <point x="368" y="439"/>
      <point x="373" y="430"/>
      <point x="373" y="390" type="curve" smooth="yes"/>
      <point x="373" y="227" type="line" smooth="yes"/>
      <point x="373" y="145"/>
      <point x="359" y="72"/>
      <point x="293" y="72" type="curve" smooth="yes"/>
      <point x="238" y="72"/>
      <point x="221" y="121"/>
      <point x="221" y="207" type="curve" smooth="yes"/>
      <point x="221" y="760" type="line"/>
      <point x="24" y="760" type="line"/>
      <point x="24" y="707" type="line"/>
      <point x="65" y="707"/>
      <point x="69" y="698"/>
      <point x="69" y="656" type="curve" smooth="yes"/>
      <point x="69" y="180" type="line" smooth="yes"/>
      <point x="69" y="45"/>
      <point x="127" y="-13"/>
      <point x="226" y="-13" type="curve" smooth="yes"/>
      <point x="289" y="-13"/>
      <point x="332" y="-4"/>
      <point x="372" y="71" type="curve"/>
      <point x="377" y="71" type="line"/>
      <point x="375" y="52"/>
      <point x="373" y="32"/>
      <point x="373" y="12" type="curve" smooth="yes"/>
    </contour>
  </outline>
</glyph>
<glyph name="uni0570" format="2">
  <advance width="572"/>
  <unicode hex="0570"/>
  <note>
uni0570
</note>
  <outline>
    <contour>
      <point x="200" y="173" type="line"/>
      <point x="211" y="238"/>
      <point x="240" y="276"/>
      <point x="283" y="276" type="curve" smooth="yes"/>
      <point x="335" y="276"/>
      <point x="356" y="241"/>
      <point x="356" y="146" type="curve" smooth="yes"/>
      <point x="356" y="0" type="line"/>
      <point x="548" y="0" type="line"/>
      <point x="548" y="53" type="line"/>
      <point x="512" y="53"/>
      <point x="508" y="62"/>
      <point x="508" y="115" type="curve" smooth="yes"/>
      <point x="508" y="177" type="line" smooth="yes"/>
      <point x="508" y="303"/>
      <point x="455" y="361"/>
      <point x="349" y="361" type="curve" smooth="yes"/>
      <point x="285" y="361"/>
      <point x="237" y="334"/>
      <point x="204" y="279" type="curve"/>
      <point x="196" y="279" type="line"/>
      <point x="206" y="573"/>
      <point x="259" y="705"/>
      <point x="344" y="705" type="curve" smooth="yes"/>
      <point x="395" y="705"/>
      <point x="417" y="671"/>
      <point x="417" y="575" type="curve"/>
      <point x="503" y="575"/>
      <point x="546" y="602"/>
      <point x="546" y="658" type="curve" smooth="yes"/>
      <point x="546" y="718"/>
      <point x="479" y="765"/>
      <point x="369" y="765" type="curve" smooth="yes"/>
      <point x="146" y="765"/>
      <point x="42" y="568"/>
      <point x="42" y="214" type="curve"/>
    </contour>
  </outline>
</glyph>
<glyph name="uni0571" format="2">
  <advance width="599"/>
  <unicode hex="0571"/>
  <note>
uni0571
</note>
  <outline>
    <contour>
      <point x="220" y="-9" type="curve" smooth="yes"/>
      <point x="330" y="-9"/>
      <point x="374" y="41"/>
      <point x="418" y="124" type="curve"/>
      <point x="387" y="157" type="line"/>
      <point x="352" y="100"/>
      <point x="331" y="75"/>
      <point x="276" y="75" type="curve" smooth="yes"/>
      <point x="225" y="75"/>
      <point x="199" y="105"/>
      <point x="199" y="173" type="curve" smooth="yes"/>
      <point x="199" y="275"/>
      <point x="236" y="338"/>
      <point x="382" y="432" type="curve" smooth="yes"/>
      <point x="551" y="541"/>
      <point x="561" y="549"/>
      <point x="561" y="591" type="curve" smooth="yes"/>
      <point x="561" y="629"/>
      <point x="544" y="640"/>
      <point x="392" y="666" type="curve" smooth="yes"/>
      <point x="263" y="688"/>
      <point x="239" y="721"/>
      <point x="239" y="775" type="curve"/>
      <point x="155" y="775"/>
      <point x="110" y="737"/>
      <point x="110" y="680" type="curve" smooth="yes"/>
      <point x="110" y="610"/>
      <point x="156" y="597"/>
      <point x="316" y="582" type="curve" smooth="yes"/>
      <point x="425" y="572"/>
      <point x="429" y="569"/>
      <point x="429" y="554" type="curve" smooth="yes"/>
      <point x="429" y="539"/>
      <point x="421" y="531"/>
      <point x="306" y="460" type="curve" smooth="yes"/>
      <point x="82" y="322"/>
      <point x="45" y="270"/>
      <point x="45" y="160" type="curve" smooth="yes"/>
      <point x="45" y="68"/>
      <point x="95" y="-9"/>
    </contour>
    <contour>
      <point x="462" y="536" type="line"/>
      <point x="325" y="459" type="line"/>
      <point x="388" y="74" type="line"/>
      <point x="392" y="74" type="line"/>
      <point x="406" y="0" type="line"/>
      <point x="587" y="0" type="line"/>
      <point x="587" y="53" type="line"/>
      <point x="547" y="53"/>
      <point x="539" y="69"/>
      <point x="530" y="124" type="curve" smooth="yes"/>
    </contour>
  </outline>
</glyph>
<glyph name="uni0573" format="2">
  <advance width="600"/>
  <unicode hex="0573"/>
  <note>
uni0573
</note>
  <outline>
    <contour>
      <point x="231" y="-13" type="curve" smooth="yes"/>
      <point x="294" y="-13"/>
      <point x="337" y="-4"/>
      <point x="377" y="71" type="curve"/>
      <point x="382" y="71" type="line"/>
      <point x="395" y="0" type="line"/>
      <point x="576" y="0" type="line"/>
      <point x="576" y="53" type="line"/>
      <point x="544" y="53"/>
      <point x="530" y="62"/>
      <point x="530" y="101" type="curve" smooth="yes"/>
      <point x="530" y="203" type="line" smooth="yes"/>
      <point x="530" y="429"/>
      <point x="407" y="489"/>
      <point x="20" y="502" type="curve"/>
      <point x="20" y="423" type="line"/>
      <point x="311" y="412"/>
      <point x="378" y="367"/>
      <point x="378" y="196" type="curve" smooth="yes"/>
      <point x="378" y="145"/>
      <point x="364" y="72"/>
      <point x="298" y="72" type="curve" smooth="yes"/>
      <point x="243" y="72"/>
      <point x="210" y="117"/>
      <point x="211" y="249" type="curve" smooth="yes"/>
      <point x="213" y="557"/>
      <point x="303" y="705"/>
      <point x="408" y="705" type="curve" smooth="yes"/>
      <point x="459" y="705"/>
      <point x="481" y="671"/>
      <point x="481" y="575" type="curve"/>
      <point x="567" y="575"/>
      <point x="610" y="602"/>
      <point x="610" y="658" type="curve" smooth="yes"/>
      <point x="610" y="718"/>
      <point x="543" y="765"/>
      <point x="413" y="765" type="curve" smooth="yes"/>
      <point x="205" y="765"/>
      <point x="57" y="558"/>
      <point x="57" y="204" type="curve" smooth="yes"/>
      <point x="57" y="49"/>
      <point x="132" y="-13"/>
    </contour>
  </outline>
</glyph>
<glyph name="uni0574" format="2">
  <advance width="600"/>
  <unicode hex="0574"/>
  <note>
uni0574
</note>
  <outline>
    <contour>
      <point x="525" y="101" type="curve" smooth="yes"/>
      <point x="525" y="396" type="line" smooth="yes"/>
      <point x="525" y="458"/>
      <point x="502" y="505"/>
      <point x="435" y="566" type="curve" smooth="yes"/>
      <point x="401" y="597"/>
      <point x="385" y="626"/>
      <point x="385" y="653" type="curve" smooth="yes"/>
      <point x="385" y="684"/>
      <point x="402" y="705"/>
      <point x="436" y="705" type="curve" smooth="yes"/>
      <point x="481" y="705"/>
      <point x="501" y="661"/>
      <point x="501" y="575" type="curve"/>
      <point x="571" y="575"/>
      <point x="630" y="609"/>
      <point x="630" y="660" type="curve" smooth="yes"/>
      <point x="630" y="718"/>
      <point x="547" y="765"/>
      <point x="445" y="765" type="curve" smooth="yes"/>
      <point x="328" y="765"/>
      <point x="249" y="715"/>
      <point x="249" y="632" type="curve" smooth="yes"/>
      <point x="249" y="586"/>
      <point x="270" y="555"/>
      <point x="311" y="517" type="curve" smooth="yes"/>
      <point x="351" y="479"/>
      <point x="373" y="442"/>
      <point x="373" y="388" type="curve" smooth="yes"/>
      <point x="373" y="227" type="line" smooth="yes"/>
      <point x="373" y="145"/>
      <point x="359" y="72"/>
      <point x="293" y="72" type="curve" smooth="yes"/>
      <point x="238" y="72"/>
      <point x="221" y="121"/>
      <point x="221" y="207" type="curve" smooth="yes"/>
      <point x="221" y="492" type="line"/>
      <point x="24" y="492" type="line"/>
      <point x="24" y="439" type="line"/>
      <point x="65" y="439"/>
      <point x="69" y="430"/>
      <point x="69" y="388" type="curve" smooth="yes"/>
      <point x="69" y="180" type="line" smooth="yes"/>
      <point x="69" y="45"/>
      <point x="127" y="-13"/>
      <point x="226" y="-13" type="curve" smooth="yes"/>
      <point x="289" y="-13"/>
      <point x="332" y="-4"/>
      <point x="372" y="71" type="curve"/>
      <point x="377" y="71" type="line"/>
      <point x="390" y="0" type="line"/>
      <point x="570" y="0" type="line"/>
      <point x="570" y="53" type="line"/>
      <point x="538" y="53"/>
      <point x="525" y="62"/>
    </contour>
  </outline>
</glyph>
<glyph name="uni0575" format="2">
  <advance width="302"/>
  <unicode hex="0575"/>
  <note>
uni0575
</note>
  <outline>
    <contour>
      <point x="75" y="110" type="line" smooth="yes"/>
      <point x="75" y="-1"/>
      <point x="114" y="-37"/>
      <point x="114" y="-116" type="curve" smooth="yes"/>
      <point x="114" y="-170"/>
      <point x="90" y="-205"/>
      <point x="31" y="-205" type="curve" smooth="yes"/>
      <point x="24" y="-205" type="line"/>
      <point x="24" y="-265" type="line"/>
      <point x="43" y="-265" type="line" smooth="yes"/>
      <point x="205" y="-265"/>
      <point x="266" y="-210"/>
      <point x="266" y="-111" type="curve" smooth="yes"/>
      <point x="266" y="-31"/>
      <point x="227" y="3"/>
      <point x="227" y="110" type="curve" smooth="yes"/>
      <point x="227" y="492" type="line"/>
      <point x="20" y="492" type="line"/>
      <point x="20" y="439" type="line"/>
      <point x="35" y="439" type="line" smooth="yes"/>
      <point x="67" y="439"/>
      <point x="75" y="433"/>
      <point x="75" y="391" type="curve" smooth="yes"/>
    </contour>
  </outline>
</glyph>
<glyph name="uni0576" format="2">
  <advance width="600"/>
  <unicode hex="0576"/>
  <note>
uni0576
</note>
  <outline>
    <contour>
      <point x="226" y="-13" type="curve" smooth="yes"/>
      <point x="289" y="-13"/>
      <point x="332" y="-4"/>
      <point x="372" y="71" type="curve"/>
      <point x="377" y="71" type="line"/>
      <point x="390" y="0" type="line"/>
      <point x="570" y="0" type="line"/>
      <point x="570" y="53" type="line"/>
      <point x="538" y="53"/>
      <point x="525" y="62"/>
      <point x="525" y="101" type="curve" smooth="yes"/>
      <point x="525" y="492" type="line"/>
      <point x="328" y="492" type="line"/>
      <point x="328" y="439" type="line"/>
      <point x="368" y="439"/>
      <point x="373" y="430"/>
      <point x="373" y="390" type="curve" smooth="yes"/>
      <point x="373" y="227" type="line" smooth="yes"/>
      <point x="373" y="145"/>
      <point x="359" y="72"/>
      <point x="276" y="72" type="curve" smooth="yes"/>
      <point x="223" y="72"/>
      <point x="201" y="121"/>
      <point x="201" y="207" type="curve" smooth="yes"/>
      <point x="201" y="302"/>
      <point x="217" y="417"/>
      <point x="256" y="512" type="curve"/>
      <point x="152" y="545" type="line"/>
      <point x="74" y="423"/>
      <point x="47" y="284"/>
      <point x="47" y="180" type="curve" smooth="yes"/>
      <point x="47" y="45"/>
      <point x="127" y="-13"/>
    </contour>
    <contour>
      <point x="256" y="525" type="line"/>
      <point x="175" y="541"/>
      <point x="157" y="571"/>
      <point x="157" y="608" type="curve" smooth="yes"/>
      <point x="157" y="665"/>
      <point x="175" y="695"/>
      <point x="294" y="695" type="curve"/>
      <point x="292" y="739"/>
      <point x="253" y="765"/>
      <point x="175" y="765" type="curve" smooth="yes"/>
      <point x="76" y="765"/>
      <point x="25" y="699"/>
      <point x="25" y="624" type="curve" smooth="yes"/>
      <point x="25" y="560"/>
      <point x="65" y="514"/>
      <point x="129" y="493" type="curve"/>
      <point x="256" y="512" type="line"/>
    </contour>
  </outline>
</glyph>
<glyph name="uni0577" format="2">
  <advance width="533"/>
  <unicode hex="0577"/>
  <note>
uni0577
</note>
  <outline>
    <contour>
      <point x="253" y="502" type="curve" smooth="yes"/>
      <point x="125" y="502"/>
      <point x="30" y="446"/>
      <point x="30" y="373" type="curve" smooth="yes"/>
      <point x="30" y="315"/>
      <point x="77" y="288"/>
      <point x="161" y="288" type="curve"/>
      <point x="161" y="381"/>
      <point x="196" y="438"/>
      <point x="251" y="438" type="curve" smooth="yes"/>
      <point x="304" y="438"/>
      <point x="332" y="405"/>
      <point x="332" y="341" type="curve" smooth="yes"/>
      <point x="332" y="232"/>
      <point x="287" y="142"/>
      <point x="200" y="49" type="curve" smooth="yes"/>
      <point x="68" y="-93"/>
      <point x="41" y="-147"/>
      <point x="41" y="-202" type="curve" smooth="yes"/>
      <point x="41" y="-242"/>
      <point x="62" y="-265"/>
      <point x="107" y="-265" type="curve" smooth="yes"/>
      <point x="456" y="-265" type="line"/>
      <point x="456" y="-189" type="line"/>
      <point x="256" y="-189" type="line" smooth="yes"/>
      <point x="216" y="-189"/>
      <point x="205" y="-181"/>
      <point x="205" y="-146" type="curve" smooth="yes"/>
      <point x="205" y="-106"/>
      <point x="222" y="-81"/>
      <point x="355" y="63" type="curve" smooth="yes"/>
      <point x="459" y="176"/>
      <point x="486" y="242"/>
      <point x="486" y="319" type="curve" smooth="yes"/>
      <point x="486" y="440"/>
      <point x="391" y="502"/>
    </contour>
  </outline>
</glyph>
<glyph name="uni0579" format="2">
  <advance width="381"/>
  <unicode hex="0579"/>
  <note>
uni0579
</note>
  <outline>
    <contour>
      <point x="349" y="264" type="line"/>
      <point x="220" y="286" type="line"/>
      <point x="83" y="49" type="line" smooth="yes"/>
      <point x="-2" y="-98"/>
      <point x="-36" y="-147"/>
      <point x="-36" y="-202" type="curve" smooth="yes"/>
      <point x="-36" y="-242"/>
      <point x="-15" y="-265"/>
      <point x="30" y="-265" type="curve" smooth="yes"/>
      <point x="349" y="-265" type="line"/>
      <point x="349" y="-186" type="line"/>
      <point x="179" y="-186" type="line" smooth="yes"/>
      <point x="139" y="-186"/>
      <point x="128" y="-178"/>
      <point x="128" y="-146" type="curve" smooth="yes"/>
      <point x="128" y="-126"/>
      <point x="142" y="-96"/>
      <point x="191" y="-11" type="curve" smooth="yes"/>
    </contour>
    <contour>
      <point x="176" y="492" type="curve"/>
      <point x="90" y="492" type="line"/>
      <point x="61" y="466"/>
      <point x="42" y="427"/>
      <point x="42" y="395" type="curve" smooth="yes"/>
      <point x="42" y="350"/>
      <point x="59" y="314"/>
      <point x="101" y="280" type="curve" smooth="yes"/>
      <point x="200" y="199" type="line"/>
      <point x="349" y="264" type="line"/>
      <point x="209" y="379" type="line" smooth="yes"/>
      <point x="170" y="411"/>
      <point x="166" y="427"/>
      <point x="166" y="448" type="curve" smooth="yes"/>
      <point x="166" y="467"/>
      <point x="169" y="478"/>
    </contour>
  </outline>
</glyph>
<glyph name="uni057B" format="2">
  <advance width="585"/>
  <unicode hex="057B"/>
  <note>
uni057B
</note>
  <outline>
    <contour>
      <point x="153" y="-265" type="curve" smooth="yes"/>
      <point x="502" y="-265" type="line"/>
      <point x="502" y="-186" type="line"/>
      <point x="302" y="-186" type="line" smooth="yes"/>
      <point x="262" y="-186"/>
      <point x="251" y="-178"/>
      <point x="251" y="-146" type="curve" smooth="yes"/>
      <point x="251" y="-106"/>
      <point x="274" y="-81"/>
      <point x="407" y="63" type="curve" smooth="yes"/>
      <point x="511" y="176"/>
      <point x="538" y="242"/>
      <point x="538" y="319" type="curve" smooth="yes"/>
      <point x="538" y="440"/>
      <point x="435" y="502"/>
      <point x="292" y="502" type="curve" smooth="yes"/>
      <point x="139" y="502"/>
      <point x="42" y="438"/>
      <point x="42" y="313" type="curve" smooth="yes"/>
      <point x="42" y="254"/>
      <point x="73" y="207"/>
      <point x="135" y="150" type="curve" smooth="yes"/>
      <point x="197" y="93"/>
      <point x="209" y="69"/>
      <point x="209" y="31" type="curve" smooth="yes"/>
      <point x="209" y="-1"/>
      <point x="195" y="-22"/>
      <point x="151" y="-74" type="curve"/>
      <point x="228" y="-74" type="line"/>
      <point x="276" y="-17"/>
      <point x="300" y="26"/>
      <point x="300" y="73" type="curve" smooth="yes"/>
      <point x="300" y="112"/>
      <point x="283" y="152"/>
      <point x="248" y="201" type="curve" smooth="yes"/>
      <point x="209" y="256"/>
      <point x="196" y="292"/>
      <point x="196" y="327" type="curve" smooth="yes"/>
      <point x="196" y="405"/>
      <point x="228" y="438"/>
      <point x="292" y="438" type="curve" smooth="yes"/>
      <point x="350" y="438"/>
      <point x="384" y="405"/>
      <point x="384" y="323" type="curve" smooth="yes"/>
      <point x="384" y="201"/>
      <point x="353" y="141"/>
      <point x="265" y="49" type="curve" smooth="yes"/>
      <point x="122" y="-99"/>
      <point x="87" y="-144"/>
      <point x="87" y="-202" type="curve" smooth="yes"/>
      <point x="87" y="-242"/>
      <point x="108" y="-265"/>
    </contour>
  </outline>
</glyph>
<glyph name="uni057C" format="2">
  <advance width="641"/>
  <unicode hex="057C"/>
  <note>
uni057C
</note>
  <outline>
    <contour>
      <point x="412" y="0" type="line"/>
      <point x="641" y="0" type="line"/>
      <point x="641" y="60" type="line"/>
      <point x="412" y="60" type="line"/>
    </contour>
    <contour>
      <point x="381" y="502" type="curve" smooth="yes"/>
      <point x="311" y="502"/>
      <point x="265" y="478"/>
      <point x="228" y="421" type="curve"/>
      <point x="223" y="421" type="line"/>
      <point x="210" y="492" type="line"/>
      <point x="30" y="492" type="line"/>
      <point x="30" y="439" type="line"/>
      <point x="62" y="439"/>
      <point x="75" y="430"/>
      <point x="75" y="391" type="curve" smooth="yes"/>
      <point x="75" y="0" type="line"/>
      <point x="227" y="0" type="line"/>
      <point x="227" y="265" type="line" smooth="yes"/>
      <point x="227" y="373"/>
      <point x="253" y="417"/>
      <point x="312" y="417" type="curve" smooth="yes"/>
      <point x="370" y="417"/>
      <point x="397" y="388"/>
      <point x="397" y="298" type="curve" smooth="yes"/>
      <point x="397" y="223"/>
      <point x="381" y="119"/>
      <point x="332" y="0" type="curve"/>
      <point x="442" y="0" type="line"/>
      <point x="523" y="122"/>
      <point x="551" y="205"/>
      <point x="551" y="309" type="curve" smooth="yes"/>
      <point x="551" y="444"/>
      <point x="478" y="502"/>
    </contour>
  </outline>
</glyph>
<glyph name="uni057E" format="2">
  <advance width="635"/>
  <unicode hex="057E"/>
  <note>
uni057E
</note>
  <outline>
    <contour>
      <point x="226" y="-13" type="curve" smooth="yes"/>
      <point x="289" y="-13"/>
      <point x="332" y="-4"/>
      <point x="372" y="71" type="curve"/>
      <point x="377" y="71" type="line"/>
      <point x="376" y="47"/>
      <point x="373" y="24"/>
      <point x="373" y="0" type="curve" smooth="yes"/>
      <point x="373" y="-265" type="line"/>
      <point x="525" y="-265" type="line"/>
      <point x="525" y="760" type="line"/>
      <point x="328" y="760" type="line"/>
      <point x="328" y="707" type="line"/>
      <point x="368" y="707"/>
      <point x="373" y="698"/>
      <point x="373" y="658" type="curve" smooth="yes"/>
      <point x="373" y="227" type="line" smooth="yes"/>
      <point x="373" y="145"/>
      <point x="359" y="72"/>
      <point x="293" y="72" type="curve" smooth="yes"/>
      <point x="238" y="72"/>
      <point x="221" y="121"/>
      <point x="221" y="207" type="curve" smooth="yes"/>
      <point x="221" y="492" type="line"/>
      <point x="24" y="492" type="line"/>
      <point x="24" y="439" type="line"/>
      <point x="65" y="439"/>
      <point x="69" y="430"/>
      <point x="69" y="388" type="curve" smooth="yes"/>
      <point x="69" y="180" type="line" smooth="yes"/>
      <point x="69" y="45"/>
      <point x="127" y="-13"/>
    </contour>
    <contour>
      <point x="505" y="-265" type="line"/>
      <point x="655" y="-265" type="line"/>
      <point x="655" y="-205" type="line"/>
      <point x="505" y="-205" type="line"/>
    </contour>
  </outline>
</glyph>
<glyph name="uni057F" format="2">
  <advance width="898"/>
  <unicode hex="057F"/>
  <note>
uni057F
</note>
  <outline>
    <contour>
      <point x="829" y="104" type="curve" smooth="yes"/>
      <point x="829" y="309" type="line" smooth="yes"/>
      <point x="829" y="444"/>
      <point x="771" y="502"/>
      <point x="672" y="502" type="curve" smooth="yes"/>
      <point x="609" y="502"/>
      <point x="566" y="493"/>
      <point x="526" y="421" type="curve"/>
      <point x="521" y="421" type="line"/>
      <point x="510" y="492" type="line"/>
      <point x="328" y="492" type="line"/>
      <point x="328" y="439" type="line"/>
      <point x="368" y="439"/>
      <point x="373" y="430"/>
      <point x="373" y="390" type="curve" smooth="yes"/>
      <point x="373" y="227" type="line" smooth="yes"/>
      <point x="373" y="145"/>
      <point x="359" y="72"/>
      <point x="293" y="72" type="curve" smooth="yes"/>
      <point x="238" y="72"/>
      <point x="221" y="121"/>
      <point x="221" y="207" type="curve" smooth="yes"/>
      <point x="221" y="492" type="line"/>
      <point x="24" y="492" type="line"/>
      <point x="24" y="439" type="line"/>
      <point x="65" y="439"/>
      <point x="69" y="430"/>
      <point x="69" y="388" type="curve" smooth="yes"/>
      <point x="69" y="180" type="line" smooth="yes"/>
      <point x="69" y="45"/>
      <point x="127" y="-13"/>
      <point x="226" y="-13" type="curve" smooth="yes"/>
      <point x="289" y="-13"/>
      <point x="332" y="-4"/>
      <point x="372" y="71" type="curve"/>
      <point x="377" y="71" type="line"/>
      <point x="390" y="0" type="line"/>
      <point x="570" y="0" type="line"/>
      <point x="570" y="53" type="line"/>
      <point x="538" y="53"/>
      <point x="525" y="62"/>
      <point x="525" y="101" type="curve" smooth="yes"/>
      <point x="525" y="265" type="line" smooth="yes"/>
      <point x="525" y="347"/>
      <point x="539" y="417"/>
      <point x="605" y="417" type="curve" smooth="yes"/>
      <point x="660" y="417"/>
      <point x="677" y="368"/>
      <point x="677" y="282" type="curve" smooth="yes"/>
      <point x="677" y="0" type="line"/>
      <point x="874" y="0" type="line"/>
      <point x="874" y="53" type="line"/>
      <point x="833" y="53"/>
      <point x="829" y="62"/>
    </contour>
  </outline>
</glyph>
<glyph name="uni0580" format="2">
  <advance width="600"/>
  <unicode hex="0580"/>
  <note>
uni0580
</note>
  <outline>
    <contour>
      <point x="576" y="53" type="line"/>
      <point x="535" y="53"/>
      <point x="531" y="62"/>
      <point x="531" y="104" type="curve" smooth="yes"/>
      <point x="531" y="309" type="line" smooth="yes"/>
      <point x="531" y="444"/>
      <point x="473" y="502"/>
      <point x="374" y="502" type="curve" smooth="yes"/>
      <point x="311" y="502"/>
      <point x="268" y="496"/>
      <point x="228" y="421" type="curve"/>
      <point x="223" y="421" type="line"/>
      <point x="210" y="492" type="line"/>
      <point x="30" y="492" type="line"/>
      <point x="30" y="439" type="line"/>
      <point x="62" y="439"/>
      <point x="75" y="430"/>
      <point x="75" y="391" type="curve" smooth="yes"/>
      <point x="75" y="-265" type="line"/>
      <point x="272" y="-265" type="line"/>
      <point x="272" y="-212" type="line"/>
      <point x="232" y="-212"/>
      <point x="227" y="-203"/>
      <point x="227" y="-163" type="curve" smooth="yes"/>
      <point x="227" y="265" type="line" smooth="yes"/>
      <point x="227" y="347"/>
      <point x="241" y="417"/>
      <point x="307" y="417" type="curve" smooth="yes"/>
      <point x="362" y="417"/>
      <point x="379" y="368"/>
      <point x="379" y="282" type="curve" smooth="yes"/>
      <point x="379" y="0" type="line"/>
      <point x="576" y="0" type="line"/>
    </contour>
  </outline>
</glyph>
<glyph name="uni0581" format="2">
  <advance width="616"/>
  <unicode hex="0581"/>
  <note>
uni0581
</note>
  <outline>
    <contour>
      <point x="265" y="-270" type="curve" smooth="yes"/>
      <point x="416" y="-270"/>
      <point x="526" y="-177"/>
      <point x="526" y="-23" type="curve" smooth="yes"/>
      <point x="526" y="492" type="line"/>
      <point x="408" y="492" type="line"/>
      <point x="389" y="421" type="line"/>
      <point x="381" y="421" type="line"/>
      <point x="351" y="478"/>
      <point x="308" y="502"/>
      <point x="247" y="502" type="curve" smooth="yes"/>
      <point x="117" y="502"/>
      <point x="47" y="411"/>
      <point x="47" y="248" type="curve" smooth="yes"/>
      <point x="47" y="81"/>
      <point x="118" y="-9"/>
      <point x="245" y="-9" type="curve" smooth="yes"/>
      <point x="301" y="-9"/>
      <point x="339" y="16"/>
      <point x="373" y="72" type="curve"/>
      <point x="382" y="72" type="line"/>
      <point x="375" y="17"/>
      <point x="374" y="-13"/>
      <point x="374" y="-39" type="curve" smooth="yes"/>
      <point x="374" y="-55" type="line" smooth="yes"/>
      <point x="374" y="-157"/>
      <point x="337" y="-211"/>
      <point x="270" y="-211" type="curve" smooth="yes"/>
      <point x="209" y="-211"/>
      <point x="167" y="-157"/>
      <point x="167" y="-77" type="curve"/>
      <point x="109" y="-77"/>
      <point x="74" y="-104"/>
      <point x="74" y="-153" type="curve" smooth="yes"/>
      <point x="74" y="-229"/>
      <point x="138" y="-270"/>
    </contour>
    <contour>
      <point x="286" y="75" type="curve" smooth="yes"/>
      <point x="216" y="75"/>
      <point x="201" y="153"/>
      <point x="201" y="247" type="curve" smooth="yes"/>
      <point x="201" y="341"/>
      <point x="215" y="418"/>
      <point x="286" y="418" type="curve" smooth="yes"/>
      <point x="349" y="418"/>
      <point x="381" y="368"/>
      <point x="381" y="246" type="curve" smooth="yes"/>
      <point x="381" y="131"/>
      <point x="348" y="75"/>
    </contour>
  </outline>
</glyph>
<glyph name="uni0582" format="2">
  <advance width="401"/>
  <unicode hex="0582"/>
  <note>
uni0582
</note>
  <outline>
    <contour>
      <point x="391" y="105" type="line"/>
      <point x="338" y="105" type="line"/>
      <point x="338" y="64"/>
      <point x="329" y="60"/>
      <point x="287" y="60" type="curve" smooth="yes"/>
      <point x="227" y="60" type="line"/>
      <point x="227" y="492" type="line"/>
      <point x="20" y="492" type="line"/>
      <point x="20" y="439" type="line"/>
      <point x="35" y="439" type="line" smooth="yes"/>
      <point x="67" y="439"/>
      <point x="75" y="433"/>
      <point x="75" y="391" type="curve" smooth="yes"/>
      <point x="75" y="0" type="line"/>
      <point x="391" y="0" type="line"/>
    </contour>
  </outline>
</glyph>
<glyph name="uni0583" format="2">
  <advance width="898"/>
  <unicode hex="0583"/>
  <note>
uni0583
</note>
  <outline>
    <contour>
      <point x="829" y="104" type="curve" smooth="yes"/>
      <point x="829" y="309" type="line" smooth="yes"/>
      <point x="829" y="444"/>
      <point x="771" y="502"/>
      <point x="672" y="502" type="curve" smooth="yes"/>
      <point x="609" y="502"/>
      <point x="566" y="493"/>
      <point x="526" y="421" type="curve"/>
      <point x="521" y="421" type="line"/>
      <point x="522" y="446"/>
      <point x="525" y="470"/>
      <point x="525" y="496" type="curve" smooth="yes"/>
      <point x="525" y="760" type="line"/>
      <point x="328" y="760" type="line"/>
      <point x="328" y="707" type="line"/>
      <point x="368" y="707"/>
      <point x="373" y="698"/>
      <point x="373" y="658" type="curve" smooth="yes"/>
      <point x="373" y="227" type="line" smooth="yes"/>
      <point x="373" y="145"/>
      <point x="359" y="72"/>
      <point x="293" y="72" type="curve" smooth="yes"/>
      <point x="238" y="72"/>
      <point x="221" y="121"/>
      <point x="221" y="207" type="curve" smooth="yes"/>
      <point x="221" y="492" type="line"/>
      <point x="24" y="492" type="line"/>
      <point x="24" y="439" type="line"/>
      <point x="65" y="439"/>
      <point x="69" y="430"/>
      <point x="69" y="388" type="curve" smooth="yes"/>
      <point x="69" y="180" type="line" smooth="yes"/>
      <point x="69" y="45"/>
      <point x="127" y="-13"/>
      <point x="226" y="-13" type="curve" smooth="yes"/>
      <point x="289" y="-13"/>
      <point x="332" y="-4"/>
      <point x="372" y="71" type="curve"/>
      <point x="379" y="71" type="line"/>
      <point x="376" y="47"/>
      <point x="373" y="25"/>
      <point x="373" y="0" type="curve" smooth="yes"/>
      <point x="373" y="-265" type="line"/>
      <point x="570" y="-265" type="line"/>
      <point x="570" y="-212" type="line"/>
      <point x="538" y="-212"/>
      <point x="525" y="-203"/>
      <point x="525" y="-164" type="curve" smooth="yes"/>
      <point x="525" y="265" type="line" smooth="yes"/>
      <point x="525" y="347"/>
      <point x="539" y="417"/>
      <point x="605" y="417" type="curve" smooth="yes"/>
      <point x="660" y="417"/>
      <point x="677" y="368"/>
      <point x="677" y="282" type="curve" smooth="yes"/>
      <point x="677" y="0" type="line"/>
      <point x="874" y="0" type="line"/>
      <point x="874" y="53" type="line"/>
      <point x="833" y="53"/>
      <point x="829" y="62"/>
    </contour>
  </outline>
</glyph>
<glyph name="uni0584" format="2">
  <advance width="637"/>
  <unicode hex="0584"/>
  <note>
uni0584
</note>
  <outline>
    <contour>
      <point x="391" y="502" type="curve" smooth="yes"/>
      <point x="314" y="502"/>
      <point x="267" y="466"/>
      <point x="240" y="414" type="curve"/>
      <point x="236" y="414" type="line"/>
      <point x="218" y="492" type="line"/>
      <point x="51" y="492" type="line"/>
      <point x="51" y="439" type="line"/>
      <point x="89" y="439"/>
      <point x="96" y="430"/>
      <point x="96" y="385" type="curve" smooth="yes"/>
      <point x="96" y="-265" type="line"/>
      <point x="293" y="-265" type="line"/>
      <point x="293" y="-212" type="line"/>
      <point x="264" y="-212"/>
      <point x="248" y="-204"/>
      <point x="248" y="-147" type="curve" smooth="yes"/>
      <point x="248" y="-53" type="line" smooth="yes"/>
      <point x="248" y="-26"/>
      <point x="248" y="35"/>
      <point x="240" y="68" type="curve"/>
      <point x="247" y="68" type="line"/>
      <point x="274" y="19"/>
      <point x="319" y="-12"/>
      <point x="395" y="-12" type="curve" smooth="yes"/>
      <point x="521" y="-12"/>
      <point x="590" y="73"/>
      <point x="590" y="242" type="curve" smooth="yes"/>
      <point x="590" y="416"/>
      <point x="520" y="502"/>
    </contour>
    <contour>
      <point x="348" y="62" type="curve" smooth="yes"/>
      <point x="269" y="62"/>
      <point x="248" y="121"/>
      <point x="248" y="244" type="curve" smooth="yes"/>
      <point x="248" y="362"/>
      <point x="269" y="427"/>
      <point x="349" y="427" type="curve" smooth="yes"/>
      <point x="411" y="427"/>
      <point x="436" y="362"/>
      <point x="436" y="243" type="curve" smooth="yes"/>
      <point x="436" y="122"/>
      <point x="411" y="62"/>
    </contour>
    <contour>
      <point x="30" y="-130" type="line"/>
      <point x="551" y="-130" type="line"/>
      <point x="551" y="-70" type="line"/>
      <point x="30" y="-70" type="line"/>
    </contour>
  </outline>
</glyph>
<glyph name="uni0585" format="2">
  <advance width="595"/>
  <unicode hex="0585"/>
  <note>
uni0585
</note>
  <anchor x="297" y="492" name="top"/>
  <outline>
    <contour>
      <point x="296" y="-10" type="curve" smooth="yes"/>
      <point x="461" y="-10"/>
      <point x="548" y="74"/>
      <point x="548" y="246" type="curve" smooth="yes"/>
      <point x="548" y="419"/>
      <point x="453" y="502"/>
      <point x="299" y="502" type="curve" smooth="yes"/>
      <point x="133" y="502"/>
      <point x="47" y="419"/>
      <point x="47" y="246" type="curve" smooth="yes"/>
      <point x="47" y="74"/>
      <point x="142" y="-10"/>
    </contour>
    <contour>
      <point x="298" y="53" type="curve" smooth="yes"/>
      <point x="228" y="53"/>
      <point x="202" y="120"/>
      <point x="202" y="246" type="curve" smooth="yes"/>
      <point x="202" y="372"/>
      <point x="227" y="438"/>
      <point x="297" y="438" type="curve" smooth="yes"/>
      <point x="367" y="438"/>
      <point x="393" y="374"/>
      <point x="393" y="246" type="curve" smooth="yes"/>
      <point x="393" y="120"/>
      <point x="368" y="53"/>
    </contour>
  </outline>
</glyph>
<glyph name="uni0586" format="2">
  <advance width="695"/>
  <unicode hex="0586"/>
  <note>
uni0586
</note>
  <outline>
    <contour>
      <point x="323" y="-10" type="curve" smooth="yes"/>
      <point x="537" y="-10"/>
      <point x="650" y="77"/>
      <point x="650" y="195" type="curve" smooth="yes"/>
      <point x="650" y="320"/>
      <point x="594" y="364"/>
      <point x="350" y="438" type="curve" smooth="yes"/>
      <point x="210" y="480"/>
      <point x="190" y="515"/>
      <point x="190" y="583" type="curve" smooth="yes"/>
      <point x="190" y="670"/>
      <point x="220" y="704"/>
      <point x="268" y="704" type="curve"/>
      <point x="268" y="765" type="line"/>
      <point x="133" y="765"/>
      <point x="43" y="692"/>
      <point x="43" y="581" type="curve" smooth="yes"/>
      <point x="43" y="470"/>
      <point x="102" y="413"/>
      <point x="321" y="361" type="curve"/>
      <point x="456" y="321"/>
      <point x="496" y="287"/>
      <point x="496" y="195" type="curve" smooth="yes"/>
      <point x="496" y="103"/>
      <point x="438" y="51"/>
      <point x="321" y="51" type="curve" smooth="yes"/>
      <point x="187" y="51"/>
      <point x="126" y="100"/>
      <point x="126" y="225" type="curve"/>
      <point x="69" y="225"/>
      <point x="28" y="196"/>
      <point x="28" y="146" type="curve" smooth="yes"/>
      <point x="28" y="53"/>
      <point x="122" y="-10"/>
    </contour>
    <contour>
      <point x="268" y="-265" type="line"/>
      <point x="451" y="-265" type="line"/>
      <point x="451" y="-212" type="line"/>
      <point x="407" y="-212"/>
      <point x="400" y="-203"/>
      <point x="400" y="-150" type="curve" smooth="yes"/>
      <point x="400" y="765" type="line"/>
      <point x="268" y="765" type="line"/>
    </contour>
  </outline>
</glyph>
<glyph name="uni0587" format="2">
  <advance width="660"/>
  <unicode hex="0587"/>
  <note>
uni0587
</note>
  <outline>
    <contour>
      <point x="226" y="-13" type="curve" smooth="yes"/>
      <point x="289" y="-13"/>
      <point x="332" y="-4"/>
      <point x="372" y="71" type="curve"/>
      <point x="377" y="71" type="line"/>
      <point x="390" y="0" type="line"/>
      <point x="525" y="0" type="line"/>
      <point x="525" y="492" type="line"/>
      <point x="328" y="492" type="line"/>
      <point x="328" y="439" type="line"/>
      <point x="368" y="439"/>
      <point x="373" y="430"/>
      <point x="373" y="390" type="curve" smooth="yes"/>
      <point x="373" y="227" type="line" smooth="yes"/>
      <point x="373" y="145"/>
      <point x="359" y="72"/>
      <point x="293" y="72" type="curve" smooth="yes"/>
      <point x="238" y="72"/>
      <point x="221" y="121"/>
      <point x="221" y="207" type="curve" smooth="yes"/>
      <point x="221" y="760" type="line"/>
      <point x="24" y="760" type="line"/>
      <point x="24" y="707" type="line"/>
      <point x="65" y="707"/>
      <point x="69" y="698"/>
      <point x="69" y="656" type="curve" smooth="yes"/>
      <point x="69" y="180" type="line" smooth="yes"/>
      <point x="69" y="45"/>
      <point x="127" y="-13"/>
    </contour>
    <contour>
      <point x="515" y="0" type="line"/>
      <point x="670" y="0" type="line"/>
      <point x="670" y="60" type="line"/>
      <point x="515" y="60" type="line"/>
    </contour>
  </outline>
</glyph>
<glyph name="uni0588" format="2">
  <advance width="342"/>
  <unicode hex="0588"/>
  <note>
uni0575
</note>
  <outline>
    <contour>
      <point x="95" y="110" type="line" smooth="yes"/>
      <point x="95" y="-1"/>
      <point x="134" y="-37"/>
      <point x="134" y="-116" type="curve" smooth="yes"/>
      <point x="134" y="-170"/>
      <point x="110" y="-205"/>
      <point x="51" y="-205" type="curve" smooth="yes"/>
      <point x="44" y="-205" type="line"/>
      <point x="44" y="-265" type="line"/>
      <point x="63" y="-265" type="line" smooth="yes"/>
      <point x="225" y="-265"/>
      <point x="286" y="-210"/>
      <point x="286" y="-111" type="curve" smooth="yes"/>
      <point x="286" y="-31"/>
      <point x="247" y="3"/>
      <point x="247" y="110" type="curve" smooth="yes"/>
      <point x="247" y="492" type="line"/>
      <point x="40" y="492" type="line"/>
      <point x="40" y="439" type="line"/>
      <point x="55" y="439" type="line" smooth="yes"/>
      <point x="87" y="439"/>
      <point x="95" y="433"/>
      <point x="95" y="391" type="curve" smooth="yes"/>
    </contour>
    <contour>
      <point x="5" y="142" type="line"/>
      <point x="5" y="82" type="line"/>
      <point x="337" y="82" type="line"/>
      <point x="337" y="142" type="line"/>
    </contour>
  </outline>
</glyph>
<glyph name="uni058A" format="2">
  <advance width="470"/>
  <unicode hex="058A"/>
  <note>
uni058A
</note>
  <outline>
    <contour>
      <point x="189" y="182" type="curve" smooth="yes"/>
      <point x="271" y="182"/>
      <point x="347" y="201"/>
      <point x="420" y="234" type="curve"/>
      <point x="401" y="298" type="line"/>
      <point x="342" y="284"/>
      <point x="285" y="277"/>
      <point x="237" y="277" type="curve" smooth="yes"/>
      <point x="192" y="277"/>
      <point x="174" y="298"/>
      <point x="174" y="348" type="curve"/>
      <point x="55" y="348" type="line"/>
      <point x="55" y="232"/>
      <point x="88" y="182"/>
    </contour>
  </outline>
</glyph>
<glyph name="uni058D" format="2">
  <advance width="818"/>
  <unicode hex="058D"/>
  <outline>
    <contour>
      <point x="409" y="-10" type="curve" smooth="yes"/>
      <point x="461" y="-10"/>
      <point x="508" y="9"/>
      <point x="545" y="41" type="curve"/>
      <point x="651" y="50"/>
      <point x="727" y="128"/>
      <point x="731" y="227" type="curve"/>
      <point x="764" y="264"/>
      <point x="782" y="309"/>
      <point x="782" y="357" type="curve" smooth="yes"/>
      <point x="782" y="407"/>
      <point x="762" y="453"/>
      <point x="730" y="488" type="curve"/>
      <point x="726" y="589"/>
      <point x="647" y="665"/>
      <point x="545" y="672" type="curve"/>
      <point x="509" y="705"/>
      <point x="460" y="724"/>
      <point x="409" y="724" type="curve" smooth="yes"/>
      <point x="358" y="724"/>
      <point x="310" y="705"/>
      <point x="274" y="673" type="curve"/>
      <point x="167" y="664"/>
      <point x="91" y="586"/>
      <point x="87" y="487" type="curve"/>
      <point x="54" y="449"/>
      <point x="36" y="404"/>
      <point x="36" y="357" type="curve" smooth="yes"/>
      <point x="36" y="307"/>
      <point x="56" y="261"/>
      <point x="88" y="226" type="curve"/>
      <point x="92" y="127"/>
      <point x="169" y="49"/>
      <point x="272" y="42" type="curve"/>
      <point x="309" y="9"/>
      <point x="359" y="-10"/>
    </contour>
    <contour>
      <point x="592" y="104" type="curve"/>
      <point x="604" y="129"/>
      <point x="611" y="157"/>
      <point x="611" y="186" type="curve" smooth="yes"/>
      <point x="611" y="272"/>
      <point x="553" y="344"/>
      <point x="474" y="371" type="curve"/>
      <point x="491" y="379"/>
      <point x="510" y="383"/>
      <point x="528" y="383" type="curve" smooth="yes"/>
      <point x="606" y="383"/>
      <point x="671" y="316"/>
      <point x="671" y="234" type="curve" smooth="yes"/>
      <point x="671" y="176"/>
      <point x="636" y="124"/>
    </contour>
    <contour>
      <point x="409" y="38" type="curve" smooth="yes"/>
      <point x="389" y="38"/>
      <point x="371" y="42"/>
      <point x="353" y="51" type="curve"/>
      <point x="437" y="77"/>
      <point x="489" y="153"/>
      <point x="489" y="235" type="curve" smooth="yes"/>
      <point x="489" y="264"/>
      <point x="483" y="292"/>
      <point x="470" y="318" type="curve"/>
      <point x="517" y="294"/>
      <point x="549" y="243"/>
      <point x="549" y="186" type="curve" smooth="yes"/>
      <point x="549" y="104"/>
      <point x="487" y="38"/>
    </contour>
    <contour>
      <point x="716" y="312" type="curve"/>
      <point x="683" y="388"/>
      <point x="610" y="432"/>
      <point x="532" y="432" type="curve" smooth="yes"/>
      <point x="504" y="432"/>
      <point x="477" y="427"/>
      <point x="451" y="416" type="curve"/>
      <point x="473" y="467"/>
      <point x="522" y="502"/>
      <point x="580" y="502" type="curve" smooth="yes"/>
      <point x="659" y="502"/>
      <point x="722" y="438"/>
      <point x="722" y="357" type="curve" smooth="yes"/>
      <point x="722" y="342"/>
      <point x="720" y="326"/>
    </contour>
    <contour>
      <point x="286" y="89" type="curve" smooth="yes"/>
      <point x="232" y="89"/>
      <point x="180" y="125"/>
      <point x="159" y="176" type="curve"/>
      <point x="183" y="166"/>
      <point x="210" y="160"/>
      <point x="238" y="160" type="curve" smooth="yes"/>
      <point x="320" y="160"/>
      <point x="392" y="210"/>
      <point x="423" y="280" type="curve"/>
      <point x="427" y="267"/>
      <point x="429" y="252"/>
      <point x="429" y="238" type="curve" smooth="yes"/>
      <point x="429" y="154"/>
      <point x="362" y="89"/>
    </contour>
    <contour>
      <point x="395" y="434" type="curve"/>
      <point x="391" y="447"/>
      <point x="389" y="462"/>
      <point x="389" y="476" type="curve" smooth="yes"/>
      <point x="389" y="560"/>
      <point x="456" y="625"/>
      <point x="532" y="625" type="curve" smooth="yes"/>
      <point x="586" y="625"/>
      <point x="639" y="589"/>
      <point x="660" y="538" type="curve"/>
      <point x="635" y="548"/>
      <point x="608" y="554"/>
      <point x="580" y="554" type="curve" smooth="yes"/>
      <point x="498" y="554"/>
      <point x="426" y="504"/>
    </contour>
    <contour>
      <point x="238" y="212" type="curve" smooth="yes"/>
      <point x="159" y="212"/>
      <point x="96" y="276"/>
      <point x="96" y="357" type="curve" smooth="yes"/>
      <point x="96" y="372"/>
      <point x="98" y="388"/>
      <point x="102" y="402" type="curve"/>
      <point x="135" y="326"/>
      <point x="208" y="282"/>
      <point x="286" y="282" type="curve" smooth="yes"/>
      <point x="314" y="282"/>
      <point x="341" y="287"/>
      <point x="367" y="298" type="curve"/>
      <point x="345" y="247"/>
      <point x="296" y="212"/>
    </contour>
    <contour>
      <point x="348" y="396" type="curve"/>
      <point x="301" y="420"/>
      <point x="269" y="471"/>
      <point x="269" y="528" type="curve" smooth="yes"/>
      <point x="269" y="610"/>
      <point x="331" y="676"/>
      <point x="409" y="676" type="curve" smooth="yes"/>
      <point x="429" y="676"/>
      <point x="448" y="672"/>
      <point x="465" y="663" type="curve"/>
      <point x="381" y="637"/>
      <point x="329" y="561"/>
      <point x="329" y="479" type="curve" smooth="yes"/>
      <point x="329" y="450"/>
      <point x="335" y="422"/>
    </contour>
    <contour>
      <point x="290" y="331" type="curve" smooth="yes"/>
      <point x="212" y="331"/>
      <point x="147" y="398"/>
      <point x="147" y="480" type="curve" smooth="yes"/>
      <point x="147" y="535"/>
      <point x="177" y="585"/>
      <point x="226" y="611" type="curve"/>
      <point x="214" y="586"/>
      <point x="207" y="558"/>
      <point x="207" y="528" type="curve" smooth="yes"/>
      <point x="207" y="442"/>
      <point x="265" y="370"/>
      <point x="344" y="343" type="curve"/>
      <point x="327" y="335"/>
      <point x="308" y="331"/>
    </contour>
  </outline>
</glyph>
<glyph name="uni058E" format="2">
  <advance width="818"/>
  <unicode hex="058E"/>
  <outline>
    <contour>
      <point x="409" y="-10" type="curve" smooth="yes"/>
      <point x="459" y="-10"/>
      <point x="509" y="9"/>
      <point x="546" y="42" type="curve"/>
      <point x="649" y="49"/>
      <point x="726" y="127"/>
      <point x="730" y="226" type="curve"/>
      <point x="762" y="261"/>
      <point x="782" y="307"/>
      <point x="782" y="357" type="curve" smooth="yes"/>
      <point x="782" y="404"/>
      <point x="764" y="449"/>
      <point x="731" y="487" type="curve"/>
      <point x="727" y="586"/>
      <point x="651" y="664"/>
      <point x="544" y="673" type="curve"/>
      <point x="508" y="705"/>
      <point x="460" y="724"/>
      <point x="409" y="724" type="curve" smooth="yes"/>
      <point x="358" y="724"/>
      <point x="309" y="705"/>
      <point x="273" y="672" type="curve"/>
      <point x="171" y="665"/>
      <point x="92" y="589"/>
      <point x="88" y="488" type="curve"/>
      <point x="56" y="453"/>
      <point x="36" y="407"/>
      <point x="36" y="357" type="curve" smooth="yes"/>
      <point x="36" y="309"/>
      <point x="54" y="264"/>
      <point x="87" y="227" type="curve"/>
      <point x="91" y="128"/>
      <point x="167" y="50"/>
      <point x="273" y="41" type="curve"/>
      <point x="310" y="9"/>
      <point x="357" y="-10"/>
    </contour>
    <contour>
      <point x="226" y="104" type="curve"/>
      <point x="182" y="124"/>
      <point x="147" y="176"/>
      <point x="147" y="234" type="curve" smooth="yes"/>
      <point x="147" y="316"/>
      <point x="212" y="383"/>
      <point x="290" y="383" type="curve" smooth="yes"/>
      <point x="308" y="383"/>
      <point x="327" y="379"/>
      <point x="344" y="371" type="curve"/>
      <point x="265" y="344"/>
      <point x="207" y="272"/>
      <point x="207" y="186" type="curve" smooth="yes"/>
      <point x="207" y="157"/>
      <point x="214" y="129"/>
    </contour>
    <contour>
      <point x="409" y="38" type="curve" smooth="yes"/>
      <point x="331" y="38"/>
      <point x="269" y="104"/>
      <point x="269" y="186" type="curve" smooth="yes"/>
      <point x="269" y="243"/>
      <point x="301" y="294"/>
      <point x="348" y="318" type="curve"/>
      <point x="335" y="292"/>
      <point x="329" y="264"/>
      <point x="329" y="235" type="curve" smooth="yes"/>
      <point x="329" y="153"/>
      <point x="381" y="77"/>
      <point x="465" y="51" type="curve"/>
      <point x="447" y="42"/>
      <point x="429" y="38"/>
    </contour>
    <contour>
      <point x="102" y="312" type="curve"/>
      <point x="98" y="326"/>
      <point x="96" y="342"/>
      <point x="96" y="357" type="curve" smooth="yes"/>
      <point x="96" y="438"/>
      <point x="159" y="502"/>
      <point x="238" y="502" type="curve" smooth="yes"/>
      <point x="296" y="502"/>
      <point x="345" y="467"/>
      <point x="367" y="416" type="curve"/>
      <point x="341" y="427"/>
      <point x="314" y="432"/>
      <point x="286" y="432" type="curve" smooth="yes"/>
      <point x="208" y="432"/>
      <point x="135" y="388"/>
    </contour>
    <contour>
      <point x="532" y="89" type="curve" smooth="yes"/>
      <point x="456" y="89"/>
      <point x="389" y="154"/>
      <point x="389" y="238" type="curve" smooth="yes"/>
      <point x="389" y="252"/>
      <point x="391" y="267"/>
      <point x="395" y="280" type="curve"/>
      <point x="426" y="210"/>
      <point x="498" y="160"/>
      <point x="580" y="160" type="curve" smooth="yes"/>
      <point x="608" y="160"/>
      <point x="635" y="166"/>
      <point x="659" y="176" type="curve"/>
      <point x="638" y="125"/>
      <point x="586" y="89"/>
    </contour>
    <contour>
      <point x="423" y="434" type="curve"/>
      <point x="392" y="504"/>
      <point x="320" y="554"/>
      <point x="238" y="554" type="curve" smooth="yes"/>
      <point x="210" y="554"/>
      <point x="183" y="548"/>
      <point x="158" y="538" type="curve"/>
      <point x="179" y="589"/>
      <point x="232" y="625"/>
      <point x="286" y="625" type="curve" smooth="yes"/>
      <point x="362" y="625"/>
      <point x="429" y="560"/>
      <point x="429" y="476" type="curve" smooth="yes"/>
      <point x="429" y="462"/>
      <point x="427" y="447"/>
    </contour>
    <contour>
      <point x="580" y="212" type="curve" smooth="yes"/>
      <point x="522" y="212"/>
      <point x="473" y="247"/>
      <point x="451" y="298" type="curve"/>
      <point x="477" y="287"/>
      <point x="504" y="282"/>
      <point x="532" y="282" type="curve" smooth="yes"/>
      <point x="610" y="282"/>
      <point x="683" y="326"/>
      <point x="716" y="402" type="curve"/>
      <point x="720" y="388"/>
      <point x="722" y="372"/>
      <point x="722" y="357" type="curve" smooth="yes"/>
      <point x="722" y="276"/>
      <point x="659" y="212"/>
    </contour>
    <contour>
      <point x="470" y="396" type="curve"/>
      <point x="483" y="422"/>
      <point x="489" y="450"/>
      <point x="489" y="479" type="curve" smooth="yes"/>
      <point x="489" y="561"/>
      <point x="437" y="637"/>
      <point x="353" y="663" type="curve"/>
      <point x="370" y="672"/>
      <point x="389" y="676"/>
      <point x="409" y="676" type="curve" smooth="yes"/>
      <point x="487" y="676"/>
      <point x="549" y="610"/>
      <point x="549" y="528" type="curve" smooth="yes"/>
      <point x="549" y="471"/>
      <point x="517" y="420"/>
    </contour>
    <contour>
      <point x="528" y="331" type="curve" smooth="yes"/>
      <point x="510" y="331"/>
      <point x="491" y="335"/>
      <point x="474" y="343" type="curve"/>
      <point x="553" y="370"/>
      <point x="611" y="442"/>
      <point x="611" y="528" type="curve" smooth="yes"/>
      <point x="611" y="558"/>
      <point x="604" y="586"/>
      <point x="592" y="611" type="curve"/>
      <point x="641" y="585"/>
      <point x="671" y="535"/>
      <point x="671" y="480" type="curve" smooth="yes"/>
      <point x="671" y="398"/>
      <point x="606" y="331"/>
    </contour>
  </outline>
</glyph>
<glyph name="uni058F" format="2">
  <advance width="748"/>
  <unicode hex="058F"/>
  <note>
uni058F
</note>
  <outline>
    <contour>
      <point x="52" y="364" type="line"/>
      <point x="210" y="364" type="line"/>
      <point x="210" y="466" type="line" smooth="yes"/>
      <point x="210" y="554"/>
      <point x="254" y="609"/>
      <point x="332" y="609" type="curve" smooth="yes"/>
      <point x="411" y="609"/>
      <point x="455" y="559"/>
      <point x="455" y="466" type="curve" smooth="yes"/>
      <point x="455" y="0" type="line"/>
      <point x="659" y="0" type="line"/>
      <point x="659" y="51" type="line"/>
      <point x="620" y="51"/>
      <point x="613" y="61"/>
      <point x="613" y="114" type="curve" smooth="yes"/>
      <point x="613" y="441" type="line" smooth="yes"/>
      <point x="613" y="590"/>
      <point x="510" y="674"/>
      <point x="332" y="674" type="curve" smooth="yes"/>
      <point x="155" y="674"/>
      <point x="52" y="591"/>
      <point x="52" y="441" type="curve" smooth="yes"/>
    </contour>
    <contour>
      <point x="341" y="294" type="line"/>
      <point x="727" y="294" type="line"/>
      <point x="727" y="354" type="line"/>
      <point x="341" y="354" type="line"/>
    </contour>
    <contour>
      <point x="341" y="182" type="line"/>
      <point x="727" y="182" type="line"/>
      <point x="727" y="242" type="line"/>
      <point x="341" y="242" type="line"/>
    </contour>
  </outline>
</glyph>
<glyph name="uniFB13" format="2">
  <advance width="1220"/>
  <unicode hex="FB13"/>
  <note>
uniFB13
</note>
  <outline>
    <contour>
      <point x="525" y="101" type="curve" smooth="yes"/>
      <point x="525" y="396" type="line" smooth="yes"/>
      <point x="525" y="458"/>
      <point x="502" y="505"/>
      <point x="435" y="566" type="curve" smooth="yes"/>
      <point x="401" y="597"/>
      <point x="385" y="626"/>
      <point x="385" y="653" type="curve" smooth="yes"/>
      <point x="385" y="684"/>
      <point x="402" y="705"/>
      <point x="457" y="705" type="curve" smooth="yes"/>
      <point x="535" y="705"/>
      <point x="635" y="685"/>
      <point x="729" y="647" type="curve"/>
      <point x="824" y="705" type="line"/>
      <point x="721" y="744"/>
      <point x="547" y="765"/>
      <point x="445" y="765" type="curve" smooth="yes"/>
      <point x="311" y="765"/>
      <point x="249" y="715"/>
      <point x="249" y="632" type="curve" smooth="yes"/>
      <point x="249" y="586"/>
      <point x="270" y="555"/>
      <point x="311" y="517" type="curve" smooth="yes"/>
      <point x="351" y="480"/>
      <point x="373" y="442"/>
      <point x="373" y="388" type="curve" smooth="yes"/>
      <point x="373" y="227" type="line" smooth="yes"/>
      <point x="373" y="145"/>
      <point x="359" y="72"/>
      <point x="293" y="72" type="curve" smooth="yes"/>
      <point x="238" y="72"/>
      <point x="221" y="121"/>
      <point x="221" y="207" type="curve" smooth="yes"/>
      <point x="221" y="492" type="line"/>
      <point x="24" y="492" type="line"/>
      <point x="24" y="439" type="line"/>
      <point x="65" y="439"/>
      <point x="69" y="430"/>
      <point x="69" y="388" type="curve" smooth="yes"/>
      <point x="69" y="180" type="line" smooth="yes"/>
      <point x="69" y="45"/>
      <point x="127" y="-13"/>
      <point x="226" y="-13" type="curve" smooth="yes"/>
      <point x="289" y="-13"/>
      <point x="332" y="-4"/>
      <point x="372" y="71" type="curve"/>
      <point x="377" y="71" type="line"/>
      <point x="390" y="0" type="line"/>
      <point x="570" y="0" type="line"/>
      <point x="570" y="53" type="line"/>
      <point x="538" y="53"/>
      <point x="525" y="62"/>
    </contour>
    <contour>
      <point x="1145" y="101" type="curve" smooth="yes"/>
      <point x="1145" y="492" type="line"/>
      <point x="948" y="492" type="line"/>
      <point x="948" y="439" type="line"/>
      <point x="988" y="439"/>
      <point x="993" y="430"/>
      <point x="993" y="390" type="curve" smooth="yes"/>
      <point x="993" y="227" type="line" smooth="yes"/>
      <point x="993" y="145"/>
      <point x="979" y="72"/>
      <point x="896" y="72" type="curve" smooth="yes"/>
      <point x="843" y="72"/>
      <point x="821" y="121"/>
      <point x="821" y="207" type="curve" smooth="yes"/>
      <point x="821" y="302"/>
      <point x="837" y="417"/>
      <point x="876" y="512" type="curve"/>
      <point x="772" y="545" type="line"/>
      <point x="694" y="423"/>
      <point x="667" y="284"/>
      <point x="667" y="180" type="curve" smooth="yes"/>
      <point x="667" y="45"/>
      <point x="747" y="-13"/>
      <point x="846" y="-13" type="curve" smooth="yes"/>
      <point x="909" y="-13"/>
      <point x="952" y="-4"/>
      <point x="992" y="71" type="curve"/>
      <point x="997" y="71" type="line"/>
      <point x="1010" y="0" type="line"/>
      <point x="1190" y="0" type="line"/>
      <point x="1190" y="53" type="line"/>
      <point x="1158" y="53"/>
      <point x="1145" y="62"/>
    </contour>
    <contour>
      <point x="824" y="705" type="curve"/>
      <point x="693" y="732" type="line"/>
      <point x="661" y="706"/>
      <point x="645" y="666"/>
      <point x="645" y="624" type="curve" smooth="yes"/>
      <point x="645" y="560"/>
      <point x="685" y="514"/>
      <point x="749" y="493" type="curve"/>
      <point x="876" y="512" type="line"/>
      <point x="876" y="525" type="line"/>
      <point x="795" y="541"/>
      <point x="777" y="571"/>
      <point x="777" y="608" type="curve" smooth="yes"/>
      <point x="777" y="654"/>
      <point x="788" y="676"/>
    </contour>
  </outline>
</glyph>
<glyph name="uniFB14" format="2">
  <advance width="1221"/>
  <unicode hex="FB14"/>
  <note>
uniFB14
</note>
  <outline>
    <contour>
      <point x="249" y="632" type="curve" smooth="yes"/>
      <point x="249" y="586"/>
      <point x="270" y="555"/>
      <point x="311" y="517" type="curve" smooth="yes"/>
      <point x="351" y="479"/>
      <point x="373" y="442"/>
      <point x="373" y="388" type="curve" smooth="yes"/>
      <point x="373" y="227" type="line" smooth="yes"/>
      <point x="373" y="145"/>
      <point x="359" y="72"/>
      <point x="293" y="72" type="curve" smooth="yes"/>
      <point x="238" y="72"/>
      <point x="221" y="121"/>
      <point x="221" y="207" type="curve" smooth="yes"/>
      <point x="221" y="492" type="line"/>
      <point x="24" y="492" type="line"/>
      <point x="24" y="439" type="line"/>
      <point x="65" y="439"/>
      <point x="69" y="430"/>
      <point x="69" y="388" type="curve" smooth="yes"/>
      <point x="69" y="180" type="line" smooth="yes"/>
      <point x="69" y="45"/>
      <point x="127" y="-13"/>
      <point x="226" y="-13" type="curve" smooth="yes"/>
      <point x="289" y="-13"/>
      <point x="332" y="-4"/>
      <point x="372" y="71" type="curve"/>
      <point x="377" y="71" type="line"/>
      <point x="390" y="0" type="line"/>
      <point x="570" y="0" type="line"/>
      <point x="570" y="53" type="line"/>
      <point x="538" y="53"/>
      <point x="525" y="62"/>
      <point x="525" y="101" type="curve" smooth="yes"/>
      <point x="525" y="396" type="line" smooth="yes"/>
      <point x="525" y="458"/>
      <point x="502" y="505"/>
      <point x="435" y="566" type="curve" smooth="yes"/>
      <point x="401" y="597"/>
      <point x="385" y="626"/>
      <point x="385" y="653" type="curve" smooth="yes"/>
      <point x="385" y="684"/>
      <point x="402" y="705"/>
      <point x="457" y="705" type="curve" smooth="yes"/>
      <point x="551" y="705"/>
      <point x="696" y="675"/>
      <point x="806" y="621" type="curve"/>
      <point x="842" y="705" type="line"/>
      <point x="715" y="742"/>
      <point x="567" y="765"/>
      <point x="445" y="765" type="curve" smooth="yes"/>
      <point x="311" y="765"/>
      <point x="249" y="715"/>
    </contour>
    <contour>
      <point x="1146" y="319" type="line"/>
      <point x="994" y="319" type="line"/>
      <point x="994" y="227" type="line" smooth="yes"/>
      <point x="994" y="145"/>
      <point x="980" y="72"/>
      <point x="914" y="72" type="curve" smooth="yes"/>
      <point x="859" y="72"/>
      <point x="842" y="121"/>
      <point x="842" y="207" type="curve" smooth="yes"/>
      <point x="842" y="705" type="line"/>
      <point x="690" y="705" type="line"/>
      <point x="690" y="180" type="line" smooth="yes"/>
      <point x="690" y="45"/>
      <point x="748" y="-13"/>
      <point x="847" y="-13" type="curve" smooth="yes"/>
      <point x="910" y="-13"/>
      <point x="953" y="-4"/>
      <point x="993" y="71" type="curve"/>
      <point x="998" y="71" type="line"/>
      <point x="1011" y="0" type="line"/>
      <point x="1191" y="0" type="line"/>
      <point x="1191" y="53" type="line"/>
      <point x="1159" y="53"/>
      <point x="1146" y="62"/>
      <point x="1146" y="101" type="curve" smooth="yes"/>
    </contour>
    <contour>
      <point x="818" y="432" type="line"/>
      <point x="1178" y="432" type="line"/>
      <point x="1178" y="492" type="line"/>
      <point x="818" y="492" type="line"/>
    </contour>
  </outline>
</glyph>
<glyph name="uniFB15" format="2">
  <advance width="1225"/>
  <unicode hex="FB15"/>
  <note>
uniFB15
</note>
  <outline>
    <contour>
      <point x="249" y="632" type="curve" smooth="yes"/>
      <point x="249" y="586"/>
      <point x="270" y="556"/>
      <point x="311" y="517" type="curve" smooth="yes"/>
      <point x="351" y="479"/>
      <point x="373" y="442"/>
      <point x="373" y="388" type="curve" smooth="yes"/>
      <point x="373" y="227" type="line" smooth="yes"/>
      <point x="373" y="145"/>
      <point x="359" y="72"/>
      <point x="293" y="72" type="curve" smooth="yes"/>
      <point x="238" y="72"/>
      <point x="221" y="121"/>
      <point x="221" y="207" type="curve" smooth="yes"/>
      <point x="221" y="492" type="line"/>
      <point x="24" y="492" type="line"/>
      <point x="24" y="439" type="line"/>
      <point x="65" y="439"/>
      <point x="69" y="430"/>
      <point x="69" y="388" type="curve" smooth="yes"/>
      <point x="69" y="180" type="line" smooth="yes"/>
      <point x="69" y="45"/>
      <point x="127" y="-13"/>
      <point x="226" y="-13" type="curve" smooth="yes"/>
      <point x="289" y="-13"/>
      <point x="332" y="-4"/>
      <point x="372" y="71" type="curve"/>
      <point x="377" y="71" type="line"/>
      <point x="390" y="0" type="line"/>
      <point x="570" y="0" type="line"/>
      <point x="570" y="53" type="line"/>
      <point x="538" y="53"/>
      <point x="525" y="62"/>
      <point x="525" y="101" type="curve" smooth="yes"/>
      <point x="525" y="396" type="line" smooth="yes"/>
      <point x="525" y="458"/>
      <point x="502" y="505"/>
      <point x="435" y="566" type="curve" smooth="yes"/>
      <point x="401" y="597"/>
      <point x="385" y="626"/>
      <point x="385" y="653" type="curve" smooth="yes"/>
      <point x="385" y="684"/>
      <point x="402" y="705"/>
      <point x="457" y="705" type="curve" smooth="yes"/>
      <point x="551" y="705"/>
      <point x="706" y="675"/>
      <point x="816" y="621" type="curve"/>
      <point x="852" y="705" type="line"/>
      <point x="719" y="744"/>
      <point x="557" y="765"/>
      <point x="445" y="765" type="curve" smooth="yes"/>
      <point x="311" y="765"/>
      <point x="249" y="715"/>
    </contour>
    <contour>
      <point x="1201" y="53" type="line"/>
      <point x="1160" y="53"/>
      <point x="1156" y="62"/>
      <point x="1156" y="104" type="curve" smooth="yes"/>
      <point x="1156" y="309" type="line" smooth="yes"/>
      <point x="1156" y="444"/>
      <point x="1098" y="502"/>
      <point x="999" y="502" type="curve" smooth="yes"/>
      <point x="936" y="502"/>
      <point x="893" y="496"/>
      <point x="853" y="421" type="curve"/>
      <point x="848" y="421" type="line"/>
      <point x="850" y="445"/>
      <point x="852" y="467"/>
      <point x="852" y="492" type="curve" smooth="yes"/>
      <point x="852" y="705" type="line"/>
      <point x="700" y="705" type="line"/>
      <point x="700" y="-265" type="line"/>
      <point x="897" y="-265" type="line"/>
      <point x="897" y="-212" type="line"/>
      <point x="857" y="-212"/>
      <point x="852" y="-203"/>
      <point x="852" y="-163" type="curve" smooth="yes"/>
      <point x="852" y="265" type="line" smooth="yes"/>
      <point x="852" y="347"/>
      <point x="866" y="417"/>
      <point x="932" y="417" type="curve" smooth="yes"/>
      <point x="987" y="417"/>
      <point x="1004" y="368"/>
      <point x="1004" y="282" type="curve" smooth="yes"/>
      <point x="1004" y="0" type="line"/>
      <point x="1201" y="0" type="line"/>
    </contour>
  </outline>
</glyph>
<glyph name="uniFB16" format="2">
  <advance width="1210"/>
  <unicode hex="FB16"/>
  <note>
uniFB16
</note>
  <outline>
    <contour>
      <point x="374" y="-265" type="line"/>
      <point x="526" y="-265" type="line"/>
      <point x="526" y="653" type="line" smooth="yes"/>
      <point x="526" y="684"/>
      <point x="539" y="705"/>
      <point x="576" y="705" type="curve" smooth="yes"/>
      <point x="617" y="705"/>
      <point x="677" y="681"/>
      <point x="719" y="647" type="curve"/>
      <point x="814" y="705" type="line"/>
      <point x="731" y="740"/>
      <point x="625" y="765"/>
      <point x="544" y="765" type="curve" smooth="yes"/>
      <point x="428" y="765"/>
      <point x="373" y="715"/>
      <point x="373" y="632" type="curve" smooth="yes"/>
      <point x="373" y="227" type="line" smooth="yes"/>
      <point x="373" y="145"/>
      <point x="359" y="72"/>
      <point x="293" y="72" type="curve" smooth="yes"/>
      <point x="238" y="72"/>
      <point x="221" y="121"/>
      <point x="221" y="207" type="curve" smooth="yes"/>
      <point x="221" y="492" type="line"/>
      <point x="24" y="492" type="line"/>
      <point x="24" y="439" type="line"/>
      <point x="65" y="439"/>
      <point x="69" y="430"/>
      <point x="69" y="388" type="curve" smooth="yes"/>
      <point x="69" y="180" type="line" smooth="yes"/>
      <point x="69" y="45"/>
      <point x="127" y="-13"/>
      <point x="226" y="-13" type="curve" smooth="yes"/>
      <point x="289" y="-13"/>
      <point x="332" y="-4"/>
      <point x="372" y="71" type="curve"/>
      <point x="379" y="71" type="line"/>
      <point x="376" y="47"/>
      <point x="374" y="24"/>
      <point x="374" y="0" type="curve" smooth="yes"/>
    </contour>
    <contour>
      <point x="505" y="-265" type="line"/>
      <point x="665" y="-265" type="line"/>
      <point x="665" y="-205" type="line"/>
      <point x="505" y="-205" type="line"/>
    </contour>
    <contour>
      <point x="836" y="-13" type="curve" smooth="yes"/>
      <point x="899" y="-13"/>
      <point x="942" y="-4"/>
      <point x="982" y="71" type="curve"/>
      <point x="987" y="71" type="line"/>
      <point x="1000" y="0" type="line"/>
      <point x="1180" y="0" type="line"/>
      <point x="1180" y="53" type="line"/>
      <point x="1148" y="53"/>
      <point x="1135" y="62"/>
      <point x="1135" y="101" type="curve" smooth="yes"/>
      <point x="1135" y="492" type="line"/>
      <point x="938" y="492" type="line"/>
      <point x="938" y="439" type="line"/>
      <point x="978" y="439"/>
      <point x="983" y="430"/>
      <point x="983" y="390" type="curve" smooth="yes"/>
      <point x="983" y="227" type="line" smooth="yes"/>
      <point x="983" y="145"/>
      <point x="969" y="72"/>
      <point x="886" y="72" type="curve" smooth="yes"/>
      <point x="833" y="72"/>
      <point x="811" y="121"/>
      <point x="811" y="207" type="curve" smooth="yes"/>
      <point x="811" y="302"/>
      <point x="827" y="417"/>
      <point x="866" y="512" type="curve"/>
      <point x="762" y="545" type="line"/>
      <point x="684" y="423"/>
      <point x="657" y="284"/>
      <point x="657" y="180" type="curve" smooth="yes"/>
      <point x="657" y="45"/>
      <point x="737" y="-13"/>
    </contour>
    <contour>
      <point x="739" y="493" type="curve"/>
      <point x="866" y="512" type="line"/>
      <point x="866" y="525" type="line"/>
      <point x="785" y="541"/>
      <point x="767" y="571"/>
      <point x="767" y="608" type="curve" smooth="yes"/>
      <point x="767" y="654"/>
      <point x="778" y="676"/>
      <point x="814" y="705" type="curve"/>
      <point x="683" y="732" type="line"/>
      <point x="651" y="706"/>
      <point x="635" y="666"/>
      <point x="635" y="624" type="curve" smooth="yes"/>
      <point x="635" y="560"/>
      <point x="675" y="514"/>
    </contour>
  </outline>
</glyph>
<glyph name=".notdef" format="2">
  <advance width="600"/>
  <note>
.notdef
</note>
  <outline>
    <contour>
      <point x="52" y="0" type="line"/>
      <point x="453" y="0" type="line"/>
      <point x="453" y="714" type="line"/>
      <point x="52" y="714" type="line"/>
    </contour>
    <contour>
      <point x="101" y="48" type="line"/>
      <point x="101" y="666" type="line"/>
      <point x="404" y="666" type="line"/>
      <point x="404" y="48" type="line"/>
    </contour>
  </outline>
</glyph>
